<?xml version="1.0" encoding="utf-8" standalone="no"?>
<!DOCTYPE svg PUBLIC "-//W3C//DTD SVG 1.1//EN"
  "http://www.w3.org/Graphics/SVG/1.1/DTD/svg11.dtd">
<!-- Created with matplotlib (http://matplotlib.org/) -->
<svg height="482pt" version="1.1" viewBox="0 0 503 482" width="503pt" xmlns="http://www.w3.org/2000/svg" xmlns:xlink="http://www.w3.org/1999/xlink">
 <defs>
  <style type="text/css">
*{stroke-linecap:butt;stroke-linejoin:round;stroke-miterlimit:100000;}
  </style>
 </defs>
 <g id="figure_1">
  <g id="patch_1">
   <path d="M 0 482.220625 
L 503.48125 482.220625 
L 503.48125 0 
L 0 0 
z
" style="fill:#ffffff;"/>
  </g>
  <g id="axes_1">
   <g id="patch_2">
    <path d="M 33.139375 466.606875 
L 493.939375 466.606875 
L 493.939375 5.806875 
L 33.139375 5.806875 
z
" style="fill:#ffffff;"/>
   </g>
   <g id="line2d_1">
    <path clip-path="url(#p789a000b05)" d="M 241.34836 353.60439 
L 230.345217 357.953537 
L 221.544819 361.593474 
L 207.042725 367.866071 
L 192.268802 374.564779 
L 177.158705 381.696186 
L 161.646512 389.275358 
L 145.734517 397.288127 
L 127.718317 406.615305 
L 108.052931 417.064902 
L 87.063233 428.485067 
L 64.985168 440.752907 
L 40.763296 454.469865 
L 14.785603 469.436797 
L -1 478.643951 
L -1 478.643951 
" style="fill:none;stroke:#440154;stroke-linecap:square;"/>
   </g>
   <g id="line2d_2">
    <path clip-path="url(#p789a000b05)" d="M 241.823567 353.018182 
L 241.881553 352.655856 
L 241.943615 352.269406 
L 242.007832 351.871106 
L 242.073427 351.465907 
L 242.140021 351.056232 
L 242.207403 350.643443 
L 242.275443 350.228367 
L 242.344058 349.81155 
L 242.413189 349.393369 
L 242.482795 348.974092 
L 242.552844 348.553917 
L 242.623315 348.132997 
L 242.694187 347.711457 
L 242.765449 347.289382 
L 242.837087 346.866851 
L 242.909092 346.443927 
L 242.981457 346.020661 
L 243.054175 345.597093 
L 243.12724 345.173259 
L 243.200648 344.749192 
L 243.274395 344.324921 
L 243.348474 343.900472 
L 243.422886 343.475857 
L 243.497626 343.051097 
L 243.572692 342.626208 
L 243.648081 342.201203 
L 243.72379 341.776097 
L 243.799818 341.350901 
L 243.876163 340.925621 
L 243.952823 340.500266 
L 244.029796 340.074847 
L 244.107081 339.649369 
L 244.184676 339.223839 
L 244.262579 338.798265 
L 244.340788 338.372652 
L 244.419302 337.947009 
L 244.49812 337.521335 
L 244.57724 337.095634 
L 244.65666 336.669914 
L 244.736381 336.244174 
L 244.816398 335.818422 
L 244.896712 335.392658 
L 244.977321 334.966887 
L 245.058224 334.541111 
L 245.139418 334.115334 
L 245.220902 333.689557 
L 245.302676 333.263781 
L 245.384738 332.838008 
L 245.467087 332.412241 
L 245.549719 331.986482 
L 245.81603 330.638782 
" style="fill:none;stroke:#440154;stroke-linecap:square;"/>
   </g>
   <g id="line2d_3">
    <path clip-path="url(#p789a000b05)" d="M 245.81603 330.638782 
L 248.027689 319.814432 
L 251.175434 305.585057 
L 254.9322 289.743343 
L 259.328863 272.185244 
L 265.143194 249.973084 
L 271.784561 225.50855 
L 278.78354 200.575151 
L 283.913943 183.05057 
L 287.78291 170.592566 
L 291.159689 160.609571 
L 293.830702 153.543435 
L 295.369756 149.870552 
L 297.101458 146.110349 
L 299.082719 142.289971 
L 301.35645 138.495244 
L 303.884413 134.908851 
L 306.660979 131.571208 
L 309.65479 128.486679 
L 312.824262 125.626957 
L 316.01688 123.037646 
L 322.229317 118.531951 
L 328.122698 114.652003 
L 336.382544 109.569258 
L 346.503663 103.642493 
L 362.424202 94.61397 
L 429.283845 56.978808 
L 457.728068 40.615713 
L 487.26371 23.367504 
L 504.48125 13.201329 
L 504.48125 13.201329 
" style="fill:none;stroke:#30678d;stroke-linecap:square;"/>
   </g>
   <g id="line2d_4">
    <path clip-path="url(#p789a000b05)" d="M 242.093634 353.722828 
L 262.233942 369.947518 
L 273.098112 378.375131 
L 282.313296 385.234908 
L 292.621446 392.628791 
L 305.680221 401.696721 
L 322.560104 413.12775 
L 352.431105 433.030903 
L 405.559652 468.431554 
L 427.52613 483.220625 
L 427.52613 483.220625 
" style="fill:none;stroke:#440154;stroke-linecap:square;"/>
   </g>
   <g id="line2d_5">
    <path clip-path="url(#p789a000b05)" d="M 285.73039 118.80936 
L 296.733533 114.460213 
L 305.533931 110.820276 
L 320.036025 104.547679 
L 334.809948 97.848971 
L 349.920045 90.717564 
L 365.432238 83.138392 
L 381.344233 75.125623 
L 399.360433 65.798445 
L 419.025819 55.348848 
L 440.015517 43.928683 
L 462.093582 31.660843 
L 486.315454 17.943885 
L 504.48125 7.503069 
L 504.48125 7.503069 
" style="fill:none;stroke:#30678d;stroke-linecap:square;"/>
   </g>
   <g id="line2d_6">
    <path clip-path="url(#p789a000b05)" d="M 284.985116 118.690922 
L 264.844808 102.466232 
L 253.980638 94.038619 
L 244.765454 87.178842 
L 234.457304 79.784959 
L 221.398529 70.717029 
L 204.518646 59.286 
L 174.647645 39.382847 
L 121.519098 3.982196 
L 114.100615 -1 
L 114.100615 -1 
" style="fill:none;stroke:#30678d;stroke-linecap:square;"/>
   </g>
   <g id="line2d_7">
    <path clip-path="url(#p789a000b05)" d="M 285.255183 119.395568 
L 285.197197 119.757894 
L 285.135135 120.144344 
L 285.070918 120.542644 
L 285.005323 120.947843 
L 284.938729 121.357518 
L 284.871347 121.770307 
L 284.803307 122.185383 
L 284.734692 122.6022 
L 284.665561 123.020381 
L 284.595955 123.439658 
L 284.525906 123.859833 
L 284.455435 124.280753 
L 284.384563 124.702293 
L 284.313301 125.124368 
L 284.241663 125.546899 
L 284.169658 125.969823 
L 284.097293 126.393089 
L 284.024575 126.816657 
L 283.95151 127.240491 
L 283.878102 127.664558 
L 283.804355 128.088829 
L 283.730276 128.513278 
L 283.655864 128.937893 
L 283.581124 129.362653 
L 283.506058 129.787542 
L 283.430669 130.212547 
L 283.35496 130.637653 
L 283.278932 131.062849 
L 283.202587 131.488129 
L 283.125927 131.913484 
L 283.048954 132.338903 
L 282.971669 132.764381 
L 282.894074 133.189911 
L 282.816171 133.615485 
L 282.737962 134.041098 
L 282.659448 134.466741 
L 282.58063 134.892415 
L 282.50151 135.318116 
L 282.42209 135.743836 
L 282.342369 136.169576 
L 282.262352 136.595328 
L 282.182038 137.021092 
L 282.101429 137.446863 
L 282.020526 137.872639 
L 281.939332 138.298416 
L 281.857848 138.724193 
L 281.776074 139.149969 
L 281.694012 139.575742 
L 281.611663 140.001509 
L 281.529031 140.427268 
L 280.718008 144.531553 
L 279.876618 148.660052 
L 279.051061 152.599318 
L 278.244819 156.353206 
L 277.453371 159.959366 
L 276.673611 163.444591 
L 275.903316 166.828693 
L 275.140813 170.126939 
L 274.384817 173.351351 
L 273.634307 176.511626 
L 272.888451 179.615751 
L 272.14655 182.670407 
L 271.408019 185.681252 
L 270.672342 188.653153 
L 269.939077 191.590324 
L 269.20782 194.49647 
L 268.4782 197.374884 
L 267.749887 200.228506 
L 267.022566 203.059986 
L 266.295939 205.871722 
L 265.569727 208.66592 
L 264.843665 211.444619 
L 264.117479 214.209715 
L 263.390901 216.962984 
L 262.663681 219.706103 
L 261.935556 222.440666 
L 261.206249 225.168195 
L 260.475492 227.89016 
L 259.743016 230.607992 
L 259.008519 233.323083 
L 258.271641 236.036779 
L 257.532032 238.750427 
L 256.789539 241.465486 
L 256.04371 244.183277 
L 255.294189 246.9052 
L 254.540516 249.632648 
L 253.782232 252.367071 
L 253.018835 255.109965 
L 252.249772 257.86289 
L 251.47443 260.627481 
L 250.692127 263.405457 
L 249.902089 266.198647 
L 249.10345 269.008995 
L 248.29521 271.838599 
L 247.476221 274.689725 
L 246.64517 277.564827 
L 245.800495 280.466608 
L 244.940391 283.398018 
L 244.062713 286.36232 
L 243.164807 289.36318 
L 242.24358 292.404641 
L 241.295114 295.491271 
L 240.314591 298.628198 
L 239.29584 301.821184 
L 238.231075 305.076681 
L 237.109956 308.401785 
L 235.919061 311.804179 
L 234.640061 315.291519 
L 233.248048 318.870315 
L 231.725566 322.503649 
" style="fill:none;stroke:#30678d;stroke-linecap:square;"/>
   </g>
   <g id="line2d_8">
    <path clip-path="url(#p789a000b05)" d="M 231.725566 322.503649 
L 231.708994 322.543198 
L 229.977292 326.303401 
L 227.996031 330.123779 
L 225.7223 333.918506 
L 223.194337 337.504899 
L 220.417771 340.842542 
L 220.239398 341.02632 
" style="fill:none;stroke:#440154;stroke-linecap:square;"/>
   </g>
   <g id="line2d_9">
    <path clip-path="url(#p789a000b05)" d="M 220.239398 341.02632 
L 217.42396 343.927071 
L 214.254488 346.786793 
L 211.06187 349.376104 
L 204.849433 353.881799 
L 198.956052 357.761747 
L 190.696206 362.844492 
L 180.575087 368.771257 
L 164.654548 377.79978 
L 97.794905 415.434942 
L 69.350682 431.798037 
L 39.81504 449.046246 
L 8.231674 467.752401 
L -1 473.266411 
L -1 473.266411 
" style="fill:none;stroke:#440154;stroke-linecap:square;"/>
   </g>
   <g id="line2d_10">
    <path clip-path="url(#p789a000b05)" d="M 285.203128 353.867174 
L 281.104481 367.689362 
L 277.661248 378.680417 
L 273.234702 392.096866 
L 268.44941 405.919388 
L 262.478859 422.490465 
L 254.829127 443.02819 
L 244.56979 469.862378 
L 239.391473 483.220625 
L 239.391473 483.220625 
" style="fill:none;stroke:#35b778;stroke-linecap:square;"/>
   </g>
   <g id="line2d_11">
    <path clip-path="url(#p789a000b05)" d="M 285.746391 353.343412 
L 300.196772 349.875257 
L 310.608771 347.527233 
L 325.795453 344.336367 
L 338.719282 341.83783 
L 353.11336 339.282134 
L 368.730621 336.766209 
L 383.091925 334.673265 
L 398.676349 332.622836 
L 415.299885 330.667129 
L 432.813412 328.839882 
L 451.095094 327.160381 
L 470.044696 325.637138 
L 491.160713 324.168833 
L 504.48125 323.35292 
L 504.48125 323.35292 
" style="fill:none;stroke:#35b778;stroke-linecap:square;"/>
   </g>
   <g id="line2d_12">
    <path clip-path="url(#p789a000b05)" d="M 285.293323 353.417101 
L 278.074462 346.088256 
L 271.242065 339.467613 
L 266.596155 335.157974 
L 260.713414 329.9356 
L 255.294257 325.356881 
L 247.67625 319.277817 
L 240.4395 313.854669 
L 233.450183 308.906003 
L 226.635406 304.326622 
L 219.95138 300.050596 
L 211.195759 294.747555 
L 202.582082 289.838635 
L 194.086253 285.278596 
L 185.695148 281.035565 
L 177.40276 277.085304 
L 169.207756 273.407822 
L 161.111707 269.985391 
L 151.135643 266.040828 
L 141.32636 262.437757 
L 131.690515 259.145905 
L 122.233108 256.135965 
L 111.066049 252.840845 
L 111.066049 252.840845 
" style="fill:none;stroke:#35b778;stroke-linecap:square;"/>
   </g>
   <g id="line2d_13">
    <path clip-path="url(#p789a000b05)" d="M 111.066049 252.840845 
L 109.297356 252.342889 
L 107.478483 251.837475 
L 105.666858 251.340583 
L 103.86247 250.852022 
L 102.0653 250.371606 
L 100.275329 249.899154 
L 98.492536 249.434485 
L 96.716895 248.977427 
L 94.948378 248.527806 
L 93.186955 248.085456 
L 91.432595 247.650213 
L 89.685264 247.221916 
L 87.944927 246.800408 
L 86.211548 246.385535 
L 84.485089 245.977147 
L 82.76551 245.575097 
L 81.052772 245.179242 
L 79.346832 244.789443 
L 77.647649 244.405563 
L 75.955176 244.027467 
L 74.269369 243.655026 
L 72.590182 243.288113 
L 70.917569 242.926604 
L 69.251481 242.570379 
L 67.591872 242.21932 
L 65.938693 241.873312 
L 64.291895 241.532243 
L 62.651427 241.196003 
L 61.01724 240.864486 
L 59.389285 240.537589 
L 57.76751 240.215211 
L 56.151867 239.897253 
L 54.542304 239.583619 
L 52.938771 239.274217 
L 51.341217 238.968953 
L 49.749591 238.667741 
L 48.163844 238.370492 
L 46.583924 238.077122 
L 45.009783 237.787551 
L 43.441371 237.501696 
L 41.878638 237.219481 
L 40.321533 236.940828 
L 39.796874 236.84778 
" style="fill:none;stroke:#35b778;stroke-linecap:square;"/>
   </g>
   <g id="line2d_14">
    <path clip-path="url(#p789a000b05)" d="M 39.796874 236.84778 
L 25.049275 234.334851 
L 8.837573 231.795976 
L -1 230.355633 
L -1 230.355633 
" style="fill:none;stroke:#30678d;stroke-linecap:square;"/>
   </g>
   <g id="line2d_15">
    <path clip-path="url(#p789a000b05)" d="M 241.785427 118.996649 
L 249.004288 126.325494 
L 255.836685 132.946137 
L 260.482595 137.255776 
L 266.365336 142.47815 
L 271.784493 147.056869 
L 279.4025 153.135933 
L 286.63925 158.559081 
L 293.628567 163.507747 
L 300.443344 168.087128 
L 307.12737 172.363154 
L 315.882991 177.666195 
L 324.496668 182.575115 
L 332.992497 187.135154 
L 341.383602 191.378185 
L 349.67599 195.328446 
L 357.870994 199.005928 
L 365.967043 202.428359 
L 375.943107 206.372922 
L 385.75239 209.975993 
L 395.388235 213.267845 
L 404.845642 216.277785 
L 415.955259 219.556734 
L 426.803421 222.514596 
L 437.393486 225.191834 
L 449.431101 228.008187 
L 462.786855 230.881507 
L 475.737533 233.444797 
L 489.854742 236.019831 
L 504.48125 238.476832 
L 504.48125 238.476832 
" style="fill:none;stroke:#35b778;stroke-linecap:square;"/>
   </g>
   <g id="line2d_16">
    <path clip-path="url(#p789a000b05)" d="M 241.332359 119.070338 
L 226.881978 122.538493 
L 216.469979 124.886517 
L 201.283297 128.077383 
L 188.359468 130.57592 
L 173.96539 133.131616 
L 158.348129 135.647541 
L 143.986825 137.740485 
L 128.402401 139.790914 
L 111.778865 141.746621 
L 94.265338 143.573868 
L 75.983656 145.253369 
L 57.034054 146.776612 
L 35.918037 148.244917 
L 12.962515 149.603023 
L -1 150.322259 
L -1 150.322259 
" style="fill:none;stroke:#35b778;stroke-linecap:square;"/>
   </g>
   <g id="line2d_17">
    <path clip-path="url(#p789a000b05)" d="M -62.37528 152.704446 
" style="fill:none;stroke:#35b778;stroke-linecap:square;"/>
   </g>
   <g id="line2d_18">
    <path clip-path="url(#p789a000b05)" d="M -104.132061 153.750371 
" style="fill:none;stroke:#30678d;stroke-linecap:square;"/>
   </g>
   <g id="line2d_19">
    <path clip-path="url(#p789a000b05)" d="M 241.875622 118.546576 
L 241.977231 118.194211 
L 242.085734 117.818418 
L 242.19772 117.43112 
L 242.311814 117.037125 
L 242.427346 116.638789 
L 242.543938 116.237434 
L 242.661364 115.833862 
L 242.779472 115.428609 
L 242.89816 115.022035 
L 243.017356 114.614406 
L 243.137005 114.205912 
L 243.257068 113.796703 
L 243.377511 113.386903 
L 243.498313 112.976591 
L 243.619453 112.565842 
L 243.740915 112.154723 
L 243.862688 111.743279 
L 243.98476 111.33155 
L 244.107123 110.919577 
L 244.229768 110.507388 
L 244.352691 110.095009 
L 244.475886 109.682463 
L 244.599348 109.269772 
L 244.723074 108.856952 
L 244.847059 108.444022 
L 244.9713 108.030993 
L 245.095798 107.617873 
L 245.22055 107.204674 
L 245.34555 106.791413 
L 245.4708 106.378094 
L 245.596299 105.964725 
L 245.722044 105.551313 
L 245.848034 105.137865 
L 245.974269 104.724388 
L 246.100749 104.310888 
L 246.227468 103.89737 
L 246.354429 103.483838 
L 246.481632 103.070297 
L 246.609075 102.656751 
L 246.736755 102.243203 
L 246.864681 101.829664 
L 246.992866 101.416162 
L 247.121279 101.002656 
L 247.249918 100.589147 
L 247.378786 100.175642 
L 247.507888 99.762151 
L 247.637224 99.348678 
L 247.766795 98.935226 
L 247.896598 98.521796 
L 248.026635 98.108391 
L 248.156904 97.695012 
L 248.207416 97.536266 
" style="fill:none;stroke:#35b778;stroke-linecap:square;"/>
   </g>
   <g id="line2d_20">
    <path clip-path="url(#p789a000b05)" d="M 248.207416 97.536266 
L 252.805029 83.403667 
L 257.716144 69.088218 
L 263.784766 52.151736 
L 271.5197 31.320838 
L 281.205706 5.929363 
L 283.882044 -1 
L 283.882044 -1 
" style="fill:none;stroke:#440154;stroke-linecap:square;"/>
   </g>
   <g id="line2d_21">
    <path clip-path="url(#p789a000b05)" d="M 276.847496 381.196009 
L 281.37814 392.107992 
L 286.876607 406.010237 
L 292.511449 420.865508 
L 299.359685 439.589759 
L 306.640381 460.156607 
L 314.578918 483.220625 
L 314.578918 483.220625 
" style="fill:none;stroke:#30678d;stroke-linecap:square;"/>
   </g>
   <g id="line2d_22">
    <path clip-path="url(#p789a000b05)" d="M 248.075952 319.58972 
L 232.905242 285.392174 
L 223.616292 264.838469 
L 215.817473 248.14926 
L 209.463363 235.03701 
L 202.955533 222.119863 
L 197.101176 210.976703 
L 191.070507 199.991647 
L 185.744939 190.715454 
L 180.265216 181.585581 
L 174.627741 172.62269 
L 168.835829 163.849643 
L 162.900425 155.289007 
L 156.839685 146.960192 
L 150.677054 138.877061 
L 144.438696 131.046731 
L 137.099826 122.231174 
L 129.73177 113.751434 
L 122.366775 105.591684 
L 113.98597 96.632462 
L 104.637151 86.981758 
L 94.379768 76.737726 
L 83.280188 65.985556 
L 71.407267 54.796532 
L 57.873232 42.360673 
L 42.81823 28.847198 
L 26.38395 14.401383 
L 17.471578 6.676983 
L 17.471578 6.676983 
" style="fill:none;stroke:#440154;stroke-linecap:square;"/>
   </g>
   <g id="line2d_23">
    <path clip-path="url(#p789a000b05)" d="M 279.002798 152.82403 
L 294.173508 187.021576 
L 303.462458 207.575281 
L 311.261277 224.26449 
L 317.615387 237.37674 
L 324.123217 250.293887 
L 329.977574 261.437047 
L 336.008243 272.422103 
L 341.333811 281.698296 
L 346.813534 290.828169 
L 352.451009 299.79106 
L 358.242921 308.564107 
L 364.178325 317.124743 
L 370.239065 325.453558 
L 376.401696 333.536689 
L 382.640054 341.367019 
L 389.978924 350.182576 
L 397.34698 358.662316 
L 404.711975 366.822066 
L 413.09278 375.781288 
L 422.441599 385.431992 
L 432.698982 395.676024 
L 443.798562 406.428194 
L 455.671483 417.617218 
L 469.205518 430.053077 
L 484.26052 443.566552 
L 500.6948 458.012367 
L 504.48125 461.302589 
L 504.48125 461.302589 
" style="fill:none;stroke:#440154;stroke-linecap:square;"/>
   </g>
   <g id="line2d_24">
    <path clip-path="url(#p789a000b05)" d="M 250.231254 91.217741 
L 245.70061 80.305758 
L 240.202143 66.403513 
L 234.567301 51.548242 
L 227.719065 32.823991 
L 220.438369 12.257143 
L 215.850012 -1 
L 215.850012 -1 
" style="fill:none;stroke:#35b778;stroke-linecap:square;"/>
   </g>
   <g id="line2d_25">
    <path clip-path="url(#p789a000b05)" d="M 239.670782 300.646036 
L 237.247794 299.15667 
L 234.849853 297.697404 
L 232.474474 296.267058 
L 230.119495 294.864517 
L 227.783044 293.488764 
L 225.463526 292.138883 
L 223.159539 290.814041 
L 220.869867 289.513483 
L 218.593444 288.236522 
L 216.329344 286.982531 
L 214.076763 285.750938 
L 211.83499 284.541222 
L 209.60341 283.352909 
L 207.381485 282.185555 
L 205.168751 281.038753 
L 202.964805 279.912128 
L 200.769298 278.805328 
L 198.581935 277.718024 
L 196.402465 276.649904 
L 194.230679 275.600672 
L 192.066404 274.570049 
L 189.909498 273.557763 
L 187.759849 272.563551 
L 185.617374 271.587159 
L 183.482009 270.628337 
L 181.353715 269.686839 
L 179.232465 268.762424 
L 177.118254 267.854852 
L 175.011087 266.963885 
L 172.910983 266.089281 
L 170.817969 265.230804 
L 168.732081 264.388213 
L 166.653362 263.56127 
L 164.581863 262.749733 
L 162.517635 261.953358 
L 160.460736 261.171901 
L 158.411221 260.405114 
L 156.369153 259.652753 
L 154.334588 258.914569 
L 152.307585 258.190314 
L 150.288197 257.479737 
L 148.276482 256.782587 
L 146.272496 256.098614 
L 144.276288 255.427566 
L 142.287903 254.769191 
L 140.307385 254.123238 
L 138.334776 253.48946 
L 136.370109 252.867608 
L 134.413414 252.257435 
L 132.464716 251.658694 
L 130.524042 251.071144 
L 128.59141 250.494542 
L 126.666834 249.928649 
L 124.750323 249.373229 
L 122.841884 248.828049 
L 120.941517 248.292879 
L 119.049219 247.767491 
L 117.164981 247.251664 
L 115.288794 246.745176 
L 113.420644 246.247811 
L 111.560514 245.759356 
L 109.708381 245.279603 
L 107.864223 244.808348 
L 106.02801 244.345389 
L 104.199712 243.890529 
L 102.379295 243.443577 
L 100.566723 243.004344 
L 98.761957 242.572644 
L 96.964958 242.148299 
L 95.175683 241.731131 
L 93.394087 241.320969 
L 91.620124 240.917644 
L 89.853745 240.520993 
L 89.64864 240.475498 
" style="fill:none;stroke:#35b778;stroke-linecap:square;"/>
   </g>
   <g id="line2d_26">
    <path clip-path="url(#p789a000b05)" d="M 89.64864 240.475498 
L 88.0949 240.130855 
L 86.343538 239.747074 
L 84.599606 239.369499 
L 82.863051 238.99798 
L 81.133818 238.632372 
L 79.411851 238.272535 
L 77.697095 237.918331 
L 75.989492 237.569627 
L 74.288987 237.226293 
L 72.595519 236.888201 
L 70.90903 236.555228 
L 69.229459 236.227254 
L 67.556748 235.904161 
L 65.890837 235.585837 
L 64.231665 235.272171 
L 62.579173 234.963054 
L 60.9333 234.658383 
L 59.293988 234.358055 
L 57.661175 234.06197 
L 56.034802 233.770032 
L 54.41481 233.482147 
L 52.801142 233.198223 
L 51.193737 232.918173 
L 49.592537 232.641908 
L 47.997482 232.369346 
L 46.408513 232.100404 
L 44.825572 231.835002 
L 43.248603 231.573063 
L 41.677547 231.314511 
L 40.112349 231.059273 
L 38.552951 230.807277 
L 36.999299 230.558454 
L 35.451336 230.312737 
L 33.909009 230.070059 
L 32.372263 229.830357 
L 30.841045 229.593567 
L 29.315302 229.35963 
L 27.794981 229.128485 
L 26.280029 228.900075 
L 25.944025 228.849834 
" style="fill:none;stroke:#35b778;stroke-linecap:square;"/>
   </g>
   <g id="line2d_27">
    <path clip-path="url(#p789a000b05)" d="M 25.944025 228.849834 
L 24.770393 228.674345 
L 23.266024 228.45124 
L 21.766869 228.230705 
L 20.27288 228.01269 
L 18.784005 227.797143 
L 17.300198 227.584016 
L 15.821408 227.373261 
L 14.347589 227.164831 
L 12.878692 226.958681 
L 11.414672 226.754765 
L 9.955483 226.553042 
L 8.501079 226.353468 
L 7.051415 226.156003 
L 5.606445 225.960608 
L 4.166125 225.767242 
L 2.730412 225.575867 
L 1.299263 225.386447 
L -0.127364 225.198945 
L -1 225.085048 
" style="fill:none;stroke:#30678d;stroke-linecap:square;"/>
   </g>
   <g id="line2d_28">
    <path clip-path="url(#p789a000b05)" d="M 287.407968 171.767714 
L 296.959255 177.549233 
L 306.208883 182.900267 
L 315.24376 187.872528 
L 324.113945 192.501622 
L 332.848071 196.813078 
L 341.461376 200.826591 
L 349.960496 204.558898 
L 358.346669 208.025537 
L 366.618014 211.241849 
L 376.790553 214.934013 
L 386.771365 218.290512 
L 396.554708 221.342606 
L 406.137233 224.120871 
L 417.370369 227.134147 
L 428.316793 229.841106 
L 440.735212 232.666676 
L 452.789763 235.187457 
L 466.14545 237.755367 
L 480.670237 240.313346 
L 496.237705 242.820183 
L 504.48125 244.060854 
L 504.48125 244.060854 
" style="fill:none;stroke:#35b778;stroke-linecap:square;"/>
   </g>
   <g id="line2d_29">
    <defs>
     <path d="M -4 4 
L 4 -4 
M -4 -4 
L 4 4 
" id="mf8870c217d" style="stroke:#000000;stroke-width:2.0;"/>
    </defs>
    <g clip-path="url(#p789a000b05)">
     <use style="stroke:#000000;stroke-width:2.0;" x="241.755187316" xlink:href="#mf8870c217d" y="353.448466737"/>
    </g>
   </g>
   <g id="line2d_30">
    <g clip-path="url(#p789a000b05)">
     <use style="stroke:#000000;stroke-width:2.0;" x="285.323562684" xlink:href="#mf8870c217d" y="118.965283263"/>
    </g>
   </g>
   <g id="line2d_31">
    <g clip-path="url(#p789a000b05)">
     <use style="stroke:#000000;stroke-width:2.0;" x="285.323562684" xlink:href="#mf8870c217d" y="353.448466737"/>
    </g>
   </g>
   <g id="line2d_32">
    <g clip-path="url(#p789a000b05)">
     <use style="stroke:#000000;stroke-width:2.0;" x="241.755187316" xlink:href="#mf8870c217d" y="118.965283263"/>
    </g>
   </g>
   <g id="line2d_33">
    <path clip-path="url(#p789a000b05)" d="M 241.755187 353.448467 
L -1 213.293694 
" style="fill:none;stroke:#000000;stroke-dasharray:1.000000,3.000000;stroke-dashoffset:0.0;"/>
   </g>
   <g id="line2d_34">
    <path clip-path="url(#p789a000b05)" d="M 285.323563 118.965283 
L 77.537597 -1 
" style="fill:none;stroke:#000000;stroke-dasharray:1.000000,3.000000;stroke-dashoffset:0.0;"/>
   </g>
   <g id="line2d_35">
    <path clip-path="url(#p789a000b05)" d="M 285.323563 353.448467 
L -1 188.139481 
" style="fill:none;stroke:#000000;stroke-dasharray:1.000000,3.000000;stroke-dashoffset:0.0;"/>
   </g>
   <g id="line2d_36">
    <path clip-path="url(#p789a000b05)" d="M 241.755187 118.965283 
L 33.969222 -1 
" style="fill:none;stroke:#000000;stroke-dasharray:1.000000,3.000000;stroke-dashoffset:0.0;"/>
   </g>
   <g id="patch_3">
    <path d="M 33.139375 5.806875 
L 493.939375 5.806875 
" style="fill:none;stroke:#000000;stroke-linecap:square;stroke-linejoin:miter;"/>
   </g>
   <g id="patch_4">
    <path d="M 493.939375 466.606875 
L 493.939375 5.806875 
" style="fill:none;stroke:#000000;stroke-linecap:square;stroke-linejoin:miter;"/>
   </g>
   <g id="patch_5">
    <path d="M 33.139375 466.606875 
L 493.939375 466.606875 
" style="fill:none;stroke:#000000;stroke-linecap:square;stroke-linejoin:miter;"/>
   </g>
   <g id="patch_6">
    <path d="M 33.139375 466.606875 
L 33.139375 5.806875 
" style="fill:none;stroke:#000000;stroke-linecap:square;stroke-linejoin:miter;"/>
   </g>
   <g id="matplotlib.axis_1">
    <g id="xtick_1">
     <g id="line2d_37">
      <defs>
       <path d="M 0 0 
L 0 -4 
" id="m9bcfc9a2fd" style="stroke:#000000;stroke-width:0.5;"/>
      </defs>
      <g>
       <use style="stroke:#000000;stroke-width:0.5;" x="33.139375" xlink:href="#m9bcfc9a2fd" y="466.606875"/>
      </g>
     </g>
     <g id="line2d_38">
      <defs>
       <path d="M 0 0 
L 0 4 
" id="m6458ce1ec5" style="stroke:#000000;stroke-width:0.5;"/>
      </defs>
      <g>
       <use style="stroke:#000000;stroke-width:0.5;" x="33.139375" xlink:href="#m6458ce1ec5" y="5.806875"/>
      </g>
     </g>
     <g id="text_1">
      <!-- −2.0 -->
      <defs>
       <path d="M 10.59375 35.5 
L 73.1875 35.5 
L 73.1875 27.203125 
L 10.59375 27.203125 
z
" id="BitstreamVeraSans-Roman-2212"/>
       <path d="M 19.1875 8.296875 
L 53.609375 8.296875 
L 53.609375 0 
L 7.328125 0 
L 7.328125 8.296875 
Q 12.9375 14.109375 22.625 23.890625 
Q 32.328125 33.6875 34.8125 36.53125 
Q 39.546875 41.84375 41.421875 45.53125 
Q 43.3125 49.21875 43.3125 52.78125 
Q 43.3125 58.59375 39.234375 62.25 
Q 35.15625 65.921875 28.609375 65.921875 
Q 23.96875 65.921875 18.8125 64.3125 
Q 13.671875 62.703125 7.8125 59.421875 
L 7.8125 69.390625 
Q 13.765625 71.78125 18.9375 73 
Q 24.125 74.21875 28.421875 74.21875 
Q 39.75 74.21875 46.484375 68.546875 
Q 53.21875 62.890625 53.21875 53.421875 
Q 53.21875 48.921875 51.53125 44.890625 
Q 49.859375 40.875 45.40625 35.40625 
Q 44.1875 33.984375 37.640625 27.21875 
Q 31.109375 20.453125 19.1875 8.296875 
" id="BitstreamVeraSans-Roman-32"/>
       <path d="M 31.78125 66.40625 
Q 24.171875 66.40625 20.328125 58.90625 
Q 16.5 51.421875 16.5 36.375 
Q 16.5 21.390625 20.328125 13.890625 
Q 24.171875 6.390625 31.78125 6.390625 
Q 39.453125 6.390625 43.28125 13.890625 
Q 47.125 21.390625 47.125 36.375 
Q 47.125 51.421875 43.28125 58.90625 
Q 39.453125 66.40625 31.78125 66.40625 
M 31.78125 74.21875 
Q 44.046875 74.21875 50.515625 64.515625 
Q 56.984375 54.828125 56.984375 36.375 
Q 56.984375 17.96875 50.515625 8.265625 
Q 44.046875 -1.421875 31.78125 -1.421875 
Q 19.53125 -1.421875 13.0625 8.265625 
Q 6.59375 17.96875 6.59375 36.375 
Q 6.59375 54.828125 13.0625 64.515625 
Q 19.53125 74.21875 31.78125 74.21875 
" id="BitstreamVeraSans-Roman-30"/>
       <path d="M 10.6875 12.40625 
L 21 12.40625 
L 21 0 
L 10.6875 0 
z
" id="BitstreamVeraSans-Roman-2e"/>
      </defs>
      <g transform="translate(18.5696875 479.725)scale(0.12 -0.12)">
       <use xlink:href="#BitstreamVeraSans-Roman-2212"/>
       <use x="83.7890625" xlink:href="#BitstreamVeraSans-Roman-32"/>
       <use x="147.412109375" xlink:href="#BitstreamVeraSans-Roman-2e"/>
       <use x="179.19921875" xlink:href="#BitstreamVeraSans-Roman-30"/>
      </g>
     </g>
    </g>
    <g id="xtick_2">
     <g id="line2d_39">
      <g>
       <use style="stroke:#000000;stroke-width:0.5;" x="90.739375" xlink:href="#m9bcfc9a2fd" y="466.606875"/>
      </g>
     </g>
     <g id="line2d_40">
      <g>
       <use style="stroke:#000000;stroke-width:0.5;" x="90.739375" xlink:href="#m6458ce1ec5" y="5.806875"/>
      </g>
     </g>
     <g id="text_2">
      <!-- −1.5 -->
      <defs>
       <path d="M 12.40625 8.296875 
L 28.515625 8.296875 
L 28.515625 63.921875 
L 10.984375 60.40625 
L 10.984375 69.390625 
L 28.421875 72.90625 
L 38.28125 72.90625 
L 38.28125 8.296875 
L 54.390625 8.296875 
L 54.390625 0 
L 12.40625 0 
z
" id="BitstreamVeraSans-Roman-31"/>
       <path d="M 10.796875 72.90625 
L 49.515625 72.90625 
L 49.515625 64.59375 
L 19.828125 64.59375 
L 19.828125 46.734375 
Q 21.96875 47.46875 24.109375 47.828125 
Q 26.265625 48.1875 28.421875 48.1875 
Q 40.625 48.1875 47.75 41.5 
Q 54.890625 34.8125 54.890625 23.390625 
Q 54.890625 11.625 47.5625 5.09375 
Q 40.234375 -1.421875 26.90625 -1.421875 
Q 22.3125 -1.421875 17.546875 -0.640625 
Q 12.796875 0.140625 7.71875 1.703125 
L 7.71875 11.625 
Q 12.109375 9.234375 16.796875 8.0625 
Q 21.484375 6.890625 26.703125 6.890625 
Q 35.15625 6.890625 40.078125 11.328125 
Q 45.015625 15.765625 45.015625 23.390625 
Q 45.015625 31 40.078125 35.4375 
Q 35.15625 39.890625 26.703125 39.890625 
Q 22.75 39.890625 18.8125 39.015625 
Q 14.890625 38.140625 10.796875 36.28125 
z
" id="BitstreamVeraSans-Roman-35"/>
      </defs>
      <g transform="translate(76.1696875 479.725)scale(0.12 -0.12)">
       <use xlink:href="#BitstreamVeraSans-Roman-2212"/>
       <use x="83.7890625" xlink:href="#BitstreamVeraSans-Roman-31"/>
       <use x="147.412109375" xlink:href="#BitstreamVeraSans-Roman-2e"/>
       <use x="179.19921875" xlink:href="#BitstreamVeraSans-Roman-35"/>
      </g>
     </g>
    </g>
    <g id="xtick_3">
     <g id="line2d_41">
      <g>
       <use style="stroke:#000000;stroke-width:0.5;" x="148.339375" xlink:href="#m9bcfc9a2fd" y="466.606875"/>
      </g>
     </g>
     <g id="line2d_42">
      <g>
       <use style="stroke:#000000;stroke-width:0.5;" x="148.339375" xlink:href="#m6458ce1ec5" y="5.806875"/>
      </g>
     </g>
     <g id="text_3">
      <!-- −1.0 -->
      <g transform="translate(133.7696875 479.725)scale(0.12 -0.12)">
       <use xlink:href="#BitstreamVeraSans-Roman-2212"/>
       <use x="83.7890625" xlink:href="#BitstreamVeraSans-Roman-31"/>
       <use x="147.412109375" xlink:href="#BitstreamVeraSans-Roman-2e"/>
       <use x="179.19921875" xlink:href="#BitstreamVeraSans-Roman-30"/>
      </g>
     </g>
    </g>
    <g id="xtick_4">
     <g id="line2d_43">
      <g>
       <use style="stroke:#000000;stroke-width:0.5;" x="205.939375" xlink:href="#m9bcfc9a2fd" y="466.606875"/>
      </g>
     </g>
     <g id="line2d_44">
      <g>
       <use style="stroke:#000000;stroke-width:0.5;" x="205.939375" xlink:href="#m6458ce1ec5" y="5.806875"/>
      </g>
     </g>
     <g id="text_4">
      <!-- −0.5 -->
      <g transform="translate(191.3696875 479.725)scale(0.12 -0.12)">
       <use xlink:href="#BitstreamVeraSans-Roman-2212"/>
       <use x="83.7890625" xlink:href="#BitstreamVeraSans-Roman-30"/>
       <use x="147.412109375" xlink:href="#BitstreamVeraSans-Roman-2e"/>
       <use x="179.19921875" xlink:href="#BitstreamVeraSans-Roman-35"/>
      </g>
     </g>
    </g>
    <g id="xtick_5">
     <g id="line2d_45">
      <g>
       <use style="stroke:#000000;stroke-width:0.5;" x="263.539375" xlink:href="#m9bcfc9a2fd" y="466.606875"/>
      </g>
     </g>
     <g id="line2d_46">
      <g>
       <use style="stroke:#000000;stroke-width:0.5;" x="263.539375" xlink:href="#m6458ce1ec5" y="5.806875"/>
      </g>
     </g>
     <g id="text_5">
      <!-- 0.0 -->
      <g transform="translate(253.9975 479.725)scale(0.12 -0.12)">
       <use xlink:href="#BitstreamVeraSans-Roman-30"/>
       <use x="63.623046875" xlink:href="#BitstreamVeraSans-Roman-2e"/>
       <use x="95.41015625" xlink:href="#BitstreamVeraSans-Roman-30"/>
      </g>
     </g>
    </g>
    <g id="xtick_6">
     <g id="line2d_47">
      <g>
       <use style="stroke:#000000;stroke-width:0.5;" x="321.139375" xlink:href="#m9bcfc9a2fd" y="466.606875"/>
      </g>
     </g>
     <g id="line2d_48">
      <g>
       <use style="stroke:#000000;stroke-width:0.5;" x="321.139375" xlink:href="#m6458ce1ec5" y="5.806875"/>
      </g>
     </g>
     <g id="text_6">
      <!-- 0.5 -->
      <g transform="translate(311.5975 479.725)scale(0.12 -0.12)">
       <use xlink:href="#BitstreamVeraSans-Roman-30"/>
       <use x="63.623046875" xlink:href="#BitstreamVeraSans-Roman-2e"/>
       <use x="95.41015625" xlink:href="#BitstreamVeraSans-Roman-35"/>
      </g>
     </g>
    </g>
    <g id="xtick_7">
     <g id="line2d_49">
      <g>
       <use style="stroke:#000000;stroke-width:0.5;" x="378.739375" xlink:href="#m9bcfc9a2fd" y="466.606875"/>
      </g>
     </g>
     <g id="line2d_50">
      <g>
       <use style="stroke:#000000;stroke-width:0.5;" x="378.739375" xlink:href="#m6458ce1ec5" y="5.806875"/>
      </g>
     </g>
     <g id="text_7">
      <!-- 1.0 -->
      <g transform="translate(369.1975 479.725)scale(0.12 -0.12)">
       <use xlink:href="#BitstreamVeraSans-Roman-31"/>
       <use x="63.623046875" xlink:href="#BitstreamVeraSans-Roman-2e"/>
       <use x="95.41015625" xlink:href="#BitstreamVeraSans-Roman-30"/>
      </g>
     </g>
    </g>
    <g id="xtick_8">
     <g id="line2d_51">
      <g>
       <use style="stroke:#000000;stroke-width:0.5;" x="436.339375" xlink:href="#m9bcfc9a2fd" y="466.606875"/>
      </g>
     </g>
     <g id="line2d_52">
      <g>
       <use style="stroke:#000000;stroke-width:0.5;" x="436.339375" xlink:href="#m6458ce1ec5" y="5.806875"/>
      </g>
     </g>
     <g id="text_8">
      <!-- 1.5 -->
      <g transform="translate(426.7975 479.725)scale(0.12 -0.12)">
       <use xlink:href="#BitstreamVeraSans-Roman-31"/>
       <use x="63.623046875" xlink:href="#BitstreamVeraSans-Roman-2e"/>
       <use x="95.41015625" xlink:href="#BitstreamVeraSans-Roman-35"/>
      </g>
     </g>
    </g>
    <g id="xtick_9">
     <g id="line2d_53">
      <g>
       <use style="stroke:#000000;stroke-width:0.5;" x="493.939375" xlink:href="#m9bcfc9a2fd" y="466.606875"/>
      </g>
     </g>
     <g id="line2d_54">
      <g>
       <use style="stroke:#000000;stroke-width:0.5;" x="493.939375" xlink:href="#m6458ce1ec5" y="5.806875"/>
      </g>
     </g>
     <g id="text_9">
      <!-- 2.0 -->
      <g transform="translate(484.3975 479.725)scale(0.12 -0.12)">
       <use xlink:href="#BitstreamVeraSans-Roman-32"/>
       <use x="63.623046875" xlink:href="#BitstreamVeraSans-Roman-2e"/>
       <use x="95.41015625" xlink:href="#BitstreamVeraSans-Roman-30"/>
      </g>
     </g>
    </g>
   </g>
   <g id="matplotlib.axis_2">
    <g id="ytick_1">
     <g id="line2d_55">
      <defs>
       <path d="M 0 0 
L 4 0 
" id="mb10347c9a0" style="stroke:#000000;stroke-width:0.5;"/>
      </defs>
      <g>
       <use style="stroke:#000000;stroke-width:0.5;" x="33.139375" xlink:href="#mb10347c9a0" y="466.606875"/>
      </g>
     </g>
     <g id="line2d_56">
      <defs>
       <path d="M 0 0 
L -4 0 
" id="m991be9d8dc" style="stroke:#000000;stroke-width:0.5;"/>
      </defs>
      <g>
       <use style="stroke:#000000;stroke-width:0.5;" x="493.939375" xlink:href="#m991be9d8dc" y="466.606875"/>
      </g>
     </g>
     <g id="text_10">
      <!-- −2.0 -->
      <g transform="translate(3.5527136788e-15 469.918125)scale(0.12 -0.12)">
       <use xlink:href="#BitstreamVeraSans-Roman-2212"/>
       <use x="83.7890625" xlink:href="#BitstreamVeraSans-Roman-32"/>
       <use x="147.412109375" xlink:href="#BitstreamVeraSans-Roman-2e"/>
       <use x="179.19921875" xlink:href="#BitstreamVeraSans-Roman-30"/>
      </g>
     </g>
    </g>
    <g id="ytick_2">
     <g id="line2d_57">
      <g>
       <use style="stroke:#000000;stroke-width:0.5;" x="33.139375" xlink:href="#mb10347c9a0" y="409.006875"/>
      </g>
     </g>
     <g id="line2d_58">
      <g>
       <use style="stroke:#000000;stroke-width:0.5;" x="493.939375" xlink:href="#m991be9d8dc" y="409.006875"/>
      </g>
     </g>
     <g id="text_11">
      <!-- −1.5 -->
      <g transform="translate(3.5527136788e-15 412.318125)scale(0.12 -0.12)">
       <use xlink:href="#BitstreamVeraSans-Roman-2212"/>
       <use x="83.7890625" xlink:href="#BitstreamVeraSans-Roman-31"/>
       <use x="147.412109375" xlink:href="#BitstreamVeraSans-Roman-2e"/>
       <use x="179.19921875" xlink:href="#BitstreamVeraSans-Roman-35"/>
      </g>
     </g>
    </g>
    <g id="ytick_3">
     <g id="line2d_59">
      <g>
       <use style="stroke:#000000;stroke-width:0.5;" x="33.139375" xlink:href="#mb10347c9a0" y="351.406875"/>
      </g>
     </g>
     <g id="line2d_60">
      <g>
       <use style="stroke:#000000;stroke-width:0.5;" x="493.939375" xlink:href="#m991be9d8dc" y="351.406875"/>
      </g>
     </g>
     <g id="text_12">
      <!-- −1.0 -->
      <g transform="translate(3.5527136788e-15 354.718125)scale(0.12 -0.12)">
       <use xlink:href="#BitstreamVeraSans-Roman-2212"/>
       <use x="83.7890625" xlink:href="#BitstreamVeraSans-Roman-31"/>
       <use x="147.412109375" xlink:href="#BitstreamVeraSans-Roman-2e"/>
       <use x="179.19921875" xlink:href="#BitstreamVeraSans-Roman-30"/>
      </g>
     </g>
    </g>
    <g id="ytick_4">
     <g id="line2d_61">
      <g>
       <use style="stroke:#000000;stroke-width:0.5;" x="33.139375" xlink:href="#mb10347c9a0" y="293.806875"/>
      </g>
     </g>
     <g id="line2d_62">
      <g>
       <use style="stroke:#000000;stroke-width:0.5;" x="493.939375" xlink:href="#m991be9d8dc" y="293.806875"/>
      </g>
     </g>
     <g id="text_13">
      <!-- −0.5 -->
      <g transform="translate(3.5527136788e-15 297.118125)scale(0.12 -0.12)">
       <use xlink:href="#BitstreamVeraSans-Roman-2212"/>
       <use x="83.7890625" xlink:href="#BitstreamVeraSans-Roman-30"/>
       <use x="147.412109375" xlink:href="#BitstreamVeraSans-Roman-2e"/>
       <use x="179.19921875" xlink:href="#BitstreamVeraSans-Roman-35"/>
      </g>
     </g>
    </g>
    <g id="ytick_5">
     <g id="line2d_63">
      <g>
       <use style="stroke:#000000;stroke-width:0.5;" x="33.139375" xlink:href="#mb10347c9a0" y="236.206875"/>
      </g>
     </g>
     <g id="line2d_64">
      <g>
       <use style="stroke:#000000;stroke-width:0.5;" x="493.939375" xlink:href="#m991be9d8dc" y="236.206875"/>
      </g>
     </g>
     <g id="text_14">
      <!-- 0.0 -->
      <g transform="translate(10.055625 239.518125)scale(0.12 -0.12)">
       <use xlink:href="#BitstreamVeraSans-Roman-30"/>
       <use x="63.623046875" xlink:href="#BitstreamVeraSans-Roman-2e"/>
       <use x="95.41015625" xlink:href="#BitstreamVeraSans-Roman-30"/>
      </g>
     </g>
    </g>
    <g id="ytick_6">
     <g id="line2d_65">
      <g>
       <use style="stroke:#000000;stroke-width:0.5;" x="33.139375" xlink:href="#mb10347c9a0" y="178.606875"/>
      </g>
     </g>
     <g id="line2d_66">
      <g>
       <use style="stroke:#000000;stroke-width:0.5;" x="493.939375" xlink:href="#m991be9d8dc" y="178.606875"/>
      </g>
     </g>
     <g id="text_15">
      <!-- 0.5 -->
      <g transform="translate(10.055625 181.918125)scale(0.12 -0.12)">
       <use xlink:href="#BitstreamVeraSans-Roman-30"/>
       <use x="63.623046875" xlink:href="#BitstreamVeraSans-Roman-2e"/>
       <use x="95.41015625" xlink:href="#BitstreamVeraSans-Roman-35"/>
      </g>
     </g>
    </g>
    <g id="ytick_7">
     <g id="line2d_67">
      <g>
       <use style="stroke:#000000;stroke-width:0.5;" x="33.139375" xlink:href="#mb10347c9a0" y="121.006875"/>
      </g>
     </g>
     <g id="line2d_68">
      <g>
       <use style="stroke:#000000;stroke-width:0.5;" x="493.939375" xlink:href="#m991be9d8dc" y="121.006875"/>
      </g>
     </g>
     <g id="text_16">
      <!-- 1.0 -->
      <g transform="translate(10.055625 124.318125)scale(0.12 -0.12)">
       <use xlink:href="#BitstreamVeraSans-Roman-31"/>
       <use x="63.623046875" xlink:href="#BitstreamVeraSans-Roman-2e"/>
       <use x="95.41015625" xlink:href="#BitstreamVeraSans-Roman-30"/>
      </g>
     </g>
    </g>
    <g id="ytick_8">
     <g id="line2d_69">
      <g>
       <use style="stroke:#000000;stroke-width:0.5;" x="33.139375" xlink:href="#mb10347c9a0" y="63.406875"/>
      </g>
     </g>
     <g id="line2d_70">
      <g>
       <use style="stroke:#000000;stroke-width:0.5;" x="493.939375" xlink:href="#m991be9d8dc" y="63.406875"/>
      </g>
     </g>
     <g id="text_17">
      <!-- 1.5 -->
      <g transform="translate(10.055625 66.718125)scale(0.12 -0.12)">
       <use xlink:href="#BitstreamVeraSans-Roman-31"/>
       <use x="63.623046875" xlink:href="#BitstreamVeraSans-Roman-2e"/>
       <use x="95.41015625" xlink:href="#BitstreamVeraSans-Roman-35"/>
      </g>
     </g>
    </g>
    <g id="ytick_9">
     <g id="line2d_71">
      <g>
       <use style="stroke:#000000;stroke-width:0.5;" x="33.139375" xlink:href="#mb10347c9a0" y="5.806875"/>
      </g>
     </g>
     <g id="line2d_72">
      <g>
       <use style="stroke:#000000;stroke-width:0.5;" x="493.939375" xlink:href="#m991be9d8dc" y="5.806875"/>
      </g>
     </g>
     <g id="text_18">
      <!-- 2.0 -->
      <g transform="translate(10.055625 9.118125)scale(0.12 -0.12)">
       <use xlink:href="#BitstreamVeraSans-Roman-32"/>
       <use x="63.623046875" xlink:href="#BitstreamVeraSans-Roman-2e"/>
       <use x="95.41015625" xlink:href="#BitstreamVeraSans-Roman-30"/>
      </g>
     </g>
    </g>
   </g>
  </g>
 </g>
 <defs>
  <clipPath id="p789a000b05">
   <rect height="460.8" width="460.8" x="33.139375" y="5.806875"/>
  </clipPath>
 </defs>
</svg>
