<?xml version="1.0" encoding="UTF-8"?>
<svg xmlns="http://www.w3.org/2000/svg" xmlns:xlink="http://www.w3.org/1999/xlink" width="172.575195pt" height="96.016068pt" viewBox="0 0 172.575195 96.016068" version="1.1">
<g id="surface1">
<path style="fill:none;stroke-width:0.648577;stroke-linecap:butt;stroke-linejoin:miter;stroke:rgb(0%,0%,100%);stroke-opacity:1;stroke-miterlimit:4;" d="M 74.199219 46.796875 L 137.054688 46.796875 "/>
<path style="fill:none;stroke-width:0.648577;stroke-linecap:butt;stroke-linejoin:miter;stroke:rgb(0%,0%,0%);stroke-opacity:1;stroke-miterlimit:4;" d="M 74.511719 14.324219 L 74.511719 90.378906 "/>
<path style="fill:none;stroke-width:0.648577;stroke-linecap:butt;stroke-linejoin:miter;stroke:rgb(0%,0%,100%);stroke-opacity:1;stroke-miterlimit:4;" d="M 114.101562 68.734375 L 137.054688 68.734375 M 74.199219 68.734375 L 106.101562 68.734375 "/>
<path style=" stroke:none;fill-rule:nonzero;fill:rgb(100%,0%,0%);fill-opacity:1;" d="M 142.148438 12.375 L 142.148438 12.355469 L 142.140625 12.347656 L 142.140625 12.335938 L 142.128906 12.324219 L 142.121094 12.304688 L 142.121094 12.285156 L 142.109375 12.277344 L 142.101562 12.265625 L 142.089844 12.257812 L 142.089844 12.234375 L 142.078125 12.226562 L 142.070312 12.214844 L 142.058594 12.214844 L 142.058594 12.207031 L 142.050781 12.195312 L 142.039062 12.195312 L 142.03125 12.1875 L 142.019531 12.1875 L 142.011719 12.175781 L 142 12.175781 L 141.988281 12.164062 L 141.929688 12.164062 L 141.910156 12.15625 L 140.121094 12.15625 L 140.121094 12.464844 L 140.359375 12.464844 C 141.128906 12.464844 141.148438 12.574219 141.148438 12.9375 L 141.148438 17.914062 C 141.148438 18.1875 141.148438 18.65625 140.121094 18.65625 L 140.121094 18.964844 C 140.46875 18.957031 140.960938 18.9375 141.289062 18.9375 C 141.621094 18.9375 142.101562 18.957031 142.449219 18.964844 L 142.449219 18.65625 C 141.429688 18.65625 141.429688 18.1875 141.429688 17.914062 L 141.429688 12.546875 L 141.441406 12.546875 L 143.839844 18.746094 C 143.890625 18.875 143.941406 18.964844 144.039062 18.964844 C 144.148438 18.964844 144.179688 18.886719 144.21875 18.777344 L 146.671875 12.464844 L 146.679688 12.464844 L 146.679688 18.1875 C 146.679688 18.546875 146.660156 18.65625 145.890625 18.65625 L 145.648438 18.65625 L 145.648438 18.964844 C 146.019531 18.9375 146.699219 18.9375 147.078125 18.9375 C 147.46875 18.9375 148.140625 18.9375 148.511719 18.964844 L 148.511719 18.65625 L 148.269531 18.65625 C 147.5 18.65625 147.480469 18.546875 147.480469 18.1875 L 147.480469 12.9375 C 147.480469 12.574219 147.5 12.464844 148.269531 12.464844 L 148.511719 12.464844 L 148.511719 12.15625 L 146.828125 12.15625 C 146.570312 12.15625 146.570312 12.164062 146.5 12.347656 L 144.308594 17.957031 Z M 142.148438 12.375 "/>
<path style=" stroke:none;fill-rule:nonzero;fill:rgb(100%,0%,0%);fill-opacity:1;" d="M 153.359375 16.957031 L 153.359375 16.847656 L 153.351562 16.746094 L 153.339844 16.636719 L 153.320312 16.527344 L 153.300781 16.425781 L 153.28125 16.316406 L 153.25 16.214844 L 153.21875 16.117188 L 153.179688 16.027344 L 153.140625 15.925781 L 153.089844 15.835938 L 153.050781 15.746094 L 152.988281 15.664062 L 152.941406 15.574219 L 152.878906 15.507812 L 152.820312 15.425781 L 152.609375 15.214844 L 152.539062 15.15625 L 152.460938 15.097656 L 152.378906 15.046875 L 152.300781 14.996094 L 152.21875 14.957031 L 152.128906 14.914062 L 152.039062 14.875 L 151.949219 14.847656 L 151.859375 14.824219 L 151.761719 14.804688 L 151.671875 14.785156 L 151.570312 14.785156 L 151.46875 14.777344 C 150.988281 14.777344 150.558594 14.9375 150.199219 15.285156 L 150.199219 13.347656 C 150.398438 13.40625 150.730469 13.476562 151.050781 13.476562 C 152.28125 13.476562 152.96875 12.566406 152.96875 12.4375 C 152.96875 12.375 152.941406 12.324219 152.871094 12.324219 C 152.859375 12.324219 152.839844 12.324219 152.789062 12.355469 C 152.589844 12.445312 152.109375 12.644531 151.441406 12.644531 C 151.039062 12.644531 150.578125 12.574219 150.109375 12.367188 C 150.03125 12.335938 150.011719 12.335938 149.988281 12.335938 C 149.890625 12.335938 149.890625 12.414062 149.890625 12.574219 L 149.890625 15.527344 C 149.890625 15.707031 149.890625 15.785156 150.03125 15.785156 C 150.101562 15.785156 150.121094 15.757812 150.160156 15.695312 C 150.269531 15.535156 150.640625 14.996094 151.449219 14.996094 C 151.96875 14.996094 152.21875 15.457031 152.300781 15.636719 C 152.449219 16.007812 152.46875 16.394531 152.46875 16.886719 C 152.46875 17.234375 152.46875 17.835938 152.230469 18.257812 C 152 18.644531 151.628906 18.90625 151.171875 18.90625 C 150.441406 18.90625 149.871094 18.375 149.699219 17.785156 C 149.730469 17.796875 149.761719 17.804688 149.871094 17.804688 C 150.199219 17.804688 150.371094 17.554688 150.371094 17.316406 C 150.371094 17.074219 150.199219 16.824219 149.871094 16.824219 C 149.730469 16.824219 149.390625 16.90625 149.390625 17.355469 C 149.390625 18.214844 150.070312 19.1875 151.191406 19.1875 C 152.339844 19.1875 153.359375 18.226562 153.359375 16.957031 Z M 153.359375 16.957031 "/>
<path style=" stroke:none;fill-rule:nonzero;fill:rgb(0%,0%,100%);fill-opacity:1;" d="M 100.570312 34.882812 L 100.570312 34.863281 L 100.558594 34.855469 L 100.558594 34.84375 L 100.550781 34.835938 L 100.539062 34.8125 L 100.539062 34.792969 L 100.511719 34.765625 L 100.511719 34.742188 L 100.5 34.734375 L 100.488281 34.722656 L 100.480469 34.722656 L 100.480469 34.714844 L 100.46875 34.703125 L 100.460938 34.703125 L 100.449219 34.695312 L 100.441406 34.695312 L 100.429688 34.683594 L 100.421875 34.683594 L 100.410156 34.675781 L 100.351562 34.675781 L 100.328125 34.664062 L 98.539062 34.664062 L 98.539062 34.972656 L 98.78125 34.972656 C 99.550781 34.972656 99.570312 35.085938 99.570312 35.445312 L 99.570312 40.425781 C 99.570312 40.695312 99.570312 41.164062 98.539062 41.164062 L 98.539062 41.472656 C 98.890625 41.464844 99.378906 41.445312 99.710938 41.445312 C 100.039062 41.445312 100.519531 41.464844 100.871094 41.472656 L 100.871094 41.164062 C 99.851562 41.164062 99.851562 40.695312 99.851562 40.425781 L 99.851562 35.054688 L 99.859375 35.054688 L 102.261719 41.253906 C 102.308594 41.382812 102.359375 41.472656 102.460938 41.472656 C 102.570312 41.472656 102.601562 41.394531 102.640625 41.285156 L 105.089844 34.972656 L 105.101562 34.972656 L 105.101562 40.695312 C 105.101562 41.054688 105.078125 41.164062 104.308594 41.164062 L 104.070312 41.164062 L 104.070312 41.472656 C 104.441406 41.445312 105.121094 41.445312 105.5 41.445312 C 105.890625 41.445312 106.558594 41.445312 106.929688 41.472656 L 106.929688 41.164062 L 106.691406 41.164062 C 105.921875 41.164062 105.898438 41.054688 105.898438 40.695312 L 105.898438 35.445312 C 105.898438 35.085938 105.921875 34.972656 106.691406 34.972656 L 106.929688 34.972656 L 106.929688 34.664062 L 105.25 34.664062 C 104.988281 34.664062 104.988281 34.675781 104.921875 34.855469 L 102.730469 40.464844 Z M 100.570312 34.882812 "/>
<path style=" stroke:none;fill-rule:nonzero;fill:rgb(0%,0%,100%);fill-opacity:1;" d="M 108.570312 40.703125 L 109.628906 39.675781 C 111.179688 38.304688 111.78125 37.765625 111.78125 36.765625 C 111.78125 35.632812 110.878906 34.835938 109.671875 34.835938 C 108.539062 34.835938 107.808594 35.753906 107.808594 36.644531 C 107.808594 37.195312 108.300781 37.195312 108.328125 37.195312 C 108.5 37.195312 108.851562 37.074219 108.851562 36.675781 C 108.851562 36.414062 108.671875 36.152344 108.320312 36.152344 C 108.238281 36.152344 108.21875 36.152344 108.191406 36.164062 C 108.421875 35.515625 108.960938 35.144531 109.539062 35.144531 C 110.449219 35.144531 110.871094 35.953125 110.871094 36.765625 C 110.871094 37.5625 110.378906 38.355469 109.828125 38.972656 L 107.921875 41.105469 C 107.808594 41.214844 107.808594 41.234375 107.808594 41.472656 L 111.5 41.472656 L 111.78125 39.734375 L 111.53125 39.734375 C 111.480469 40.035156 111.410156 40.472656 111.308594 40.625 C 111.238281 40.703125 110.589844 40.703125 110.371094 40.703125 Z M 108.570312 40.703125 "/>
<path style="fill:none;stroke-width:0.812518;stroke-linecap:butt;stroke-linejoin:miter;stroke:rgb(0%,0%,0%);stroke-opacity:1;stroke-miterlimit:4;" d="M 23.496094 23.609375 L 23.496094 51.621094 L 51.703125 51.621094 "/>
<path style="fill-rule:evenodd;fill:rgb(0%,0%,0%);fill-opacity:1;stroke-width:0.406259;stroke-linecap:butt;stroke-linejoin:miter;stroke:rgb(0%,0%,0%);stroke-opacity:1;stroke-miterlimit:4;" d="M -21.734375 23.496094 L -24.546875 25.121094 L -24.546875 21.871094 Z M -21.734375 23.496094 " transform="matrix(-0.000000000000000061,-1,1,-0.000000000000000061,0,0)"/>
<path style="fill-rule:evenodd;fill:rgb(0%,0%,0%);fill-opacity:1;stroke-width:0.406259;stroke-linecap:butt;stroke-linejoin:miter;stroke:rgb(0%,0%,0%);stroke-opacity:1;stroke-miterlimit:4;" d="M 53.578125 51.621094 L 50.765625 53.246094 L 50.765625 49.996094 Z M 53.578125 51.621094 "/>
<path style="fill:none;stroke-width:0.8128;stroke-linecap:butt;stroke-linejoin:miter;stroke:rgb(0%,0%,0%);stroke-opacity:1;stroke-miterlimit:4;" d="M 5.921875 68.34375 L 23.859375 51.328125 "/>
<path style="fill-rule:evenodd;fill:rgb(0%,0%,0%);fill-opacity:1;stroke-width:0.294842;stroke-linecap:butt;stroke-linejoin:miter;stroke:rgb(0%,0%,0%);stroke-opacity:1;stroke-miterlimit:4;" d="M 32.368529 -38.931156 L 30.328825 -37.752787 L 30.328866 -40.108216 Z M 32.368529 -38.931156 " transform="matrix(-1,0.948624,-0.948624,-1,0,0)"/>
<path style=" stroke:none;fill-rule:nonzero;fill:rgb(0%,0%,0%);fill-opacity:1;" d="M 57.800781 56.25 L 57.800781 56.21875 L 57.789062 56.21875 L 57.789062 56.199219 L 57.78125 56.199219 L 57.78125 56.1875 L 57.769531 56.1875 L 57.769531 56.179688 L 57.761719 56.167969 L 57.761719 56.160156 L 57.75 56.160156 L 57.75 56.148438 L 57.738281 56.140625 L 57.730469 56.140625 L 57.730469 56.128906 L 57.71875 56.128906 L 57.71875 56.121094 L 57.710938 56.121094 L 57.710938 56.109375 L 57.660156 56.058594 L 57.648438 56.050781 L 57.648438 56.039062 L 57.640625 56.039062 L 57.628906 56.03125 C 56.390625 54.769531 56.070312 52.890625 56.070312 51.371094 C 56.070312 49.628906 56.449219 47.898438 57.671875 46.648438 C 57.800781 46.53125 57.800781 46.507812 57.800781 46.488281 C 57.800781 46.410156 57.761719 46.390625 57.699219 46.390625 C 57.601562 46.390625 56.699219 47.058594 56.121094 48.328125 C 55.609375 49.417969 55.488281 50.53125 55.488281 51.371094 C 55.488281 52.140625 55.601562 53.347656 56.148438 54.46875 C 56.738281 55.699219 57.601562 56.347656 57.699219 56.347656 C 57.761719 56.347656 57.800781 56.320312 57.800781 56.25 Z M 57.800781 56.25 "/>
<path style=" stroke:none;fill-rule:nonzero;fill:rgb(0%,0%,0%);fill-opacity:1;" d="M 59.699219 50.589844 L 59.699219 50.347656 C 59.699219 47.828125 60.929688 47.46875 61.441406 47.46875 C 61.679688 47.46875 62.101562 47.53125 62.308594 47.871094 C 62.171875 47.871094 61.769531 47.871094 61.769531 48.320312 C 61.769531 48.628906 62.011719 48.78125 62.230469 48.78125 C 62.390625 48.78125 62.679688 48.6875 62.679688 48.300781 C 62.679688 47.699219 62.25 47.21875 61.421875 47.21875 C 60.140625 47.21875 58.800781 48.507812 58.800781 50.710938 C 58.800781 53.371094 59.949219 54.078125 60.878906 54.078125 C 61.988281 54.078125 62.929688 53.140625 62.929688 51.820312 C 62.929688 50.558594 62.050781 49.597656 60.941406 49.597656 L 60.929688 49.828125 C 61.089844 49.828125 61.550781 49.828125 61.859375 50.449219 C 62.039062 50.820312 62.039062 51.328125 62.039062 51.820312 C 62.039062 52.289062 62.039062 52.789062 61.871094 53.148438 C 61.570312 53.75 61.109375 53.800781 60.878906 53.800781 C 60.25 53.800781 59.949219 53.199219 59.890625 53.050781 C 59.71875 52.578125 59.71875 51.78125 59.71875 51.609375 C 59.71875 50.828125 60.03125 49.828125 60.929688 49.828125 L 60.941406 49.597656 C 60.261719 49.597656 59.890625 50.109375 59.699219 50.589844 Z M 59.699219 50.589844 "/>
<path style=" stroke:none;fill-rule:nonzero;fill:rgb(0%,0%,0%);fill-opacity:1;" d="M 66.238281 51.371094 L 66.238281 51.140625 L 66.230469 51.058594 L 66.230469 50.890625 L 66.210938 50.710938 L 66.199219 50.53125 L 66.179688 50.339844 L 66.148438 50.140625 L 66.121094 49.9375 L 66.078125 49.738281 L 66.03125 49.53125 L 65.980469 49.320312 L 65.921875 49.109375 L 65.851562 48.898438 L 65.769531 48.679688 L 65.71875 48.578125 L 65.679688 48.46875 L 65.628906 48.359375 L 65.578125 48.257812 C 64.980469 47.03125 64.128906 46.390625 64.03125 46.390625 C 63.96875 46.390625 63.929688 46.429688 63.929688 46.488281 C 63.929688 46.507812 63.929688 46.53125 64.121094 46.710938 C 65.089844 47.699219 65.660156 49.28125 65.660156 51.371094 C 65.660156 53.070312 65.289062 54.820312 64.058594 56.078125 C 63.929688 56.199219 63.929688 56.21875 63.929688 56.25 C 63.929688 56.308594 63.96875 56.347656 64.03125 56.347656 C 64.128906 56.347656 65.019531 55.667969 65.609375 54.398438 C 66.121094 53.308594 66.238281 52.199219 66.238281 51.371094 Z M 66.238281 51.371094 "/>
<path style=" stroke:none;fill-rule:nonzero;fill:rgb(0%,0%,0%);fill-opacity:1;" d="M 25.238281 13.351562 L 25.230469 13.332031 L 25.230469 13.191406 L 25.21875 13.171875 L 25.21875 13.132812 L 25.210938 13.089844 L 25.199219 13.050781 L 25.191406 13.019531 L 25.179688 12.980469 L 25.171875 12.953125 L 25.160156 12.921875 L 25.140625 12.890625 L 25.128906 12.871094 L 25.109375 12.839844 L 25.101562 12.820312 L 25.078125 12.800781 L 25.070312 12.78125 L 25.050781 12.761719 L 25.03125 12.75 L 25.011719 12.730469 L 25 12.722656 L 24.980469 12.710938 L 24.960938 12.703125 L 24.921875 12.679688 L 24.898438 12.671875 L 24.890625 12.671875 L 24.871094 12.660156 L 24.828125 12.660156 L 24.808594 12.652344 L 24.800781 12.652344 C 24.550781 12.652344 24.308594 12.910156 24.308594 13.132812 C 24.308594 13.261719 24.359375 13.320312 24.46875 13.429688 C 24.679688 13.632812 24.808594 13.890625 24.808594 14.25 C 24.808594 14.671875 24.199219 16.953125 23.03125 16.953125 C 22.519531 16.953125 22.300781 16.601562 22.300781 16.082031 C 22.300781 15.519531 22.570312 14.800781 22.871094 13.972656 C 22.941406 13.800781 22.988281 13.660156 22.988281 13.472656 C 22.988281 13.019531 22.679688 12.652344 22.179688 12.652344 C 21.238281 12.652344 20.859375 14.101562 20.859375 14.191406 C 20.859375 14.292969 20.960938 14.292969 20.980469 14.292969 C 21.078125 14.292969 21.089844 14.269531 21.140625 14.113281 C 21.429688 13.101562 21.859375 12.871094 22.148438 12.871094 C 22.230469 12.871094 22.398438 12.871094 22.398438 13.191406 C 22.398438 13.441406 22.300781 13.710938 22.230469 13.890625 C 21.789062 15.042969 21.660156 15.5 21.660156 15.929688 C 21.660156 17.011719 22.539062 17.171875 22.988281 17.171875 C 24.671875 17.171875 25.238281 13.871094 25.238281 13.351562 Z M 25.238281 13.351562 "/>
<path style=" stroke:none;fill-rule:nonzero;fill:rgb(0%,0%,0%);fill-opacity:1;" d="M 1.828125 73.472656 L 2.761719 73.472656 C 2.960938 73.472656 3.058594 73.472656 3.058594 73.269531 C 3.058594 73.160156 2.960938 73.160156 2.78125 73.160156 L 1.898438 73.160156 C 2.261719 71.75 2.308594 71.550781 2.308594 71.492188 C 2.308594 71.320312 2.191406 71.222656 2.019531 71.222656 C 1.988281 71.222656 1.71875 71.230469 1.628906 71.582031 L 1.238281 73.160156 L 0.300781 73.160156 C 0.101562 73.160156 0 73.160156 0 73.351562 C 0 73.472656 0.078125 73.472656 0.28125 73.472656 L 1.160156 73.472656 C 0.441406 76.300781 0.398438 76.472656 0.398438 76.652344 C 0.398438 77.191406 0.78125 77.570312 1.320312 77.570312 C 2.328125 77.570312 2.898438 76.113281 2.898438 76.03125 C 2.898438 75.929688 2.820312 75.929688 2.78125 75.929688 C 2.691406 75.929688 2.679688 75.960938 2.628906 76.070312 C 2.199219 77.113281 1.679688 77.351562 1.339844 77.351562 C 1.128906 77.351562 1.03125 77.222656 1.03125 76.890625 C 1.03125 76.652344 1.050781 76.582031 1.089844 76.410156 Z M 1.828125 73.472656 "/>
<path style=" stroke:none;fill-rule:nonzero;fill:rgb(100%,0%,0%);fill-opacity:1;" d="M 145.429688 85.472656 L 146.359375 85.472656 C 146.558594 85.472656 146.660156 85.472656 146.660156 85.269531 C 146.660156 85.160156 146.558594 85.160156 146.378906 85.160156 L 145.5 85.160156 C 145.859375 83.75 145.910156 83.550781 145.910156 83.492188 C 145.910156 83.320312 145.789062 83.222656 145.621094 83.222656 C 145.589844 83.222656 145.320312 83.230469 145.230469 83.582031 L 144.839844 85.160156 L 143.898438 85.160156 C 143.699219 85.160156 143.601562 85.160156 143.601562 85.351562 C 143.601562 85.472656 143.679688 85.472656 143.878906 85.472656 L 144.761719 85.472656 C 144.039062 88.300781 144 88.472656 144 88.652344 C 144 89.191406 144.378906 89.570312 144.921875 89.570312 C 145.929688 89.570312 146.5 88.109375 146.5 88.03125 C 146.5 87.929688 146.421875 87.929688 146.378906 87.929688 C 146.289062 87.929688 146.28125 87.960938 146.230469 88.070312 C 145.800781 89.109375 145.28125 89.351562 144.941406 89.351562 C 144.730469 89.351562 144.628906 89.222656 144.628906 88.890625 C 144.628906 88.652344 144.648438 88.582031 144.691406 88.410156 Z M 145.429688 85.472656 "/>
<path style=" stroke:none;fill-rule:nonzero;fill:rgb(100%,0%,0%);fill-opacity:1;" d="M 150.269531 91.851562 L 150.269531 91.820312 L 150.261719 91.820312 L 150.261719 91.800781 L 150.25 91.800781 L 150.25 91.792969 L 150.238281 91.792969 L 150.238281 91.78125 L 150.230469 91.769531 L 150.230469 91.761719 L 150.21875 91.761719 L 150.21875 91.75 L 150.210938 91.742188 L 150.199219 91.742188 L 150.199219 91.730469 L 150.191406 91.730469 L 150.191406 91.722656 L 150.179688 91.722656 L 150.179688 91.710938 L 150.121094 91.652344 L 150.121094 91.640625 L 150.109375 91.640625 L 150.101562 91.632812 C 148.851562 90.371094 148.539062 88.492188 148.539062 86.972656 C 148.539062 85.230469 148.921875 83.5 150.140625 82.25 C 150.269531 82.132812 150.269531 82.109375 150.269531 82.089844 C 150.269531 82.011719 150.230469 81.992188 150.171875 81.992188 C 150.070312 81.992188 149.171875 82.660156 148.589844 83.929688 C 148.078125 85.019531 147.960938 86.132812 147.960938 86.972656 C 147.960938 87.742188 148.070312 88.953125 148.621094 90.070312 C 149.210938 91.300781 150.070312 91.953125 150.171875 91.953125 C 150.230469 91.953125 150.269531 91.921875 150.269531 91.851562 Z M 150.269531 91.851562 "/>
<path style=" stroke:none;fill-rule:nonzero;fill:rgb(100%,0%,0%);fill-opacity:1;" d="M 155.511719 85.75 L 155.5 85.730469 L 155.5 85.589844 L 155.488281 85.570312 L 155.488281 85.53125 L 155.480469 85.492188 L 155.46875 85.453125 L 155.460938 85.421875 L 155.449219 85.382812 L 155.441406 85.351562 L 155.429688 85.320312 L 155.410156 85.292969 L 155.398438 85.269531 L 155.378906 85.242188 L 155.371094 85.222656 L 155.351562 85.203125 L 155.339844 85.179688 L 155.320312 85.160156 L 155.300781 85.152344 L 155.269531 85.121094 L 155.25 85.109375 L 155.230469 85.101562 L 155.210938 85.089844 L 155.191406 85.082031 L 155.171875 85.070312 L 155.160156 85.070312 L 155.140625 85.0625 L 155.101562 85.0625 L 155.078125 85.050781 L 155.070312 85.050781 C 154.820312 85.050781 154.578125 85.3125 154.578125 85.53125 C 154.578125 85.660156 154.628906 85.722656 154.738281 85.832031 C 154.949219 86.03125 155.078125 86.292969 155.078125 86.652344 C 155.078125 87.070312 154.46875 89.351562 153.300781 89.351562 C 152.789062 89.351562 152.570312 89 152.570312 88.480469 C 152.570312 87.921875 152.839844 87.203125 153.140625 86.371094 C 153.210938 86.203125 153.261719 86.0625 153.261719 85.871094 C 153.261719 85.421875 152.949219 85.050781 152.449219 85.050781 C 151.511719 85.050781 151.128906 86.5 151.128906 86.589844 C 151.128906 86.691406 151.230469 86.691406 151.25 86.691406 C 151.351562 86.691406 151.359375 86.671875 151.410156 86.511719 C 151.699219 85.5 152.128906 85.269531 152.421875 85.269531 C 152.5 85.269531 152.671875 85.269531 152.671875 85.589844 C 152.671875 85.839844 152.570312 86.109375 152.5 86.292969 C 152.058594 87.441406 151.929688 87.902344 151.929688 88.332031 C 151.929688 89.410156 152.808594 89.570312 153.261719 89.570312 C 154.941406 89.570312 155.511719 86.269531 155.511719 85.75 Z M 155.511719 85.75 "/>
<path style=" stroke:none;fill-rule:nonzero;fill:rgb(100%,0%,0%);fill-opacity:1;" d="M 158.910156 86.972656 L 158.910156 86.660156 L 158.898438 86.492188 L 158.890625 86.3125 L 158.871094 86.132812 L 158.851562 85.941406 L 158.789062 85.542969 L 158.75 85.339844 L 158.699219 85.132812 L 158.648438 84.921875 L 158.589844 84.710938 L 158.519531 84.5 L 158.441406 84.28125 L 158.398438 84.179688 L 158.351562 84.070312 L 158.300781 83.960938 L 158.25 83.859375 C 157.660156 82.632812 156.800781 81.992188 156.699219 81.992188 C 156.640625 81.992188 156.601562 82.03125 156.601562 82.089844 C 156.601562 82.109375 156.601562 82.132812 156.789062 82.3125 C 157.769531 83.300781 158.328125 84.882812 158.328125 86.972656 C 158.328125 88.671875 157.960938 90.421875 156.730469 91.679688 C 156.601562 91.800781 156.601562 91.820312 156.601562 91.851562 C 156.601562 91.910156 156.640625 91.953125 156.699219 91.953125 C 156.800781 91.953125 157.699219 91.269531 158.28125 90 C 158.789062 88.910156 158.910156 87.800781 158.910156 86.972656 Z M 158.910156 86.972656 "/>
<path style="fill:none;stroke-width:0.8;stroke-linecap:butt;stroke-linejoin:miter;stroke:rgb(100%,0%,0%);stroke-opacity:1;stroke-miterlimit:4;" d="M 103.878906 75.339844 C 112.203125 66.871094 142.382812 33.554688 142.210938 52.503906 C 142.039062 71.457031 115.605469 91.558594 112.128906 95.617188 "/>
<path style="fill:none;stroke-width:0.8;stroke-linecap:butt;stroke-linejoin:miter;stroke:rgb(100%,0%,0%);stroke-opacity:1;stroke-miterlimit:4;" d="M 172.175781 0.398438 C 167.328125 26.386719 142.296875 34.835938 142.296875 49.167969 C 142.296875 63.5 170.144531 39.683594 171.792969 47.945312 "/>
<path style=" stroke:none;fill-rule:nonzero;fill:rgb(0%,0%,0%);fill-opacity:1;" d="M 70.148438 4.394531 L 70.148438 4.386719 L 70.140625 4.375 L 70.140625 4.367188 L 70.128906 4.355469 L 70.128906 4.335938 L 70.121094 4.324219 L 70.109375 4.304688 L 70.101562 4.296875 L 70.101562 4.277344 L 70.089844 4.265625 L 70.078125 4.257812 L 70.078125 4.246094 L 70.070312 4.234375 L 70.058594 4.226562 L 70.050781 4.226562 L 70.039062 4.214844 L 70.039062 4.207031 L 70.03125 4.207031 L 70.019531 4.195312 L 70.011719 4.195312 L 70 4.1875 L 69.96875 4.1875 L 69.949219 4.175781 L 68.121094 4.175781 L 68.121094 4.484375 L 68.359375 4.484375 C 69.121094 4.484375 69.140625 4.597656 69.140625 4.945312 L 69.140625 9.914062 C 69.140625 10.1875 69.140625 10.65625 68.121094 10.65625 L 68.121094 10.957031 C 68.46875 10.945312 68.960938 10.925781 69.28125 10.925781 C 69.609375 10.925781 70.101562 10.945312 70.449219 10.957031 L 70.449219 10.65625 C 69.421875 10.65625 69.421875 10.1875 69.421875 9.914062 L 69.421875 4.566406 L 69.429688 4.566406 L 71.828125 10.746094 C 71.878906 10.875 71.929688 10.957031 72.03125 10.957031 C 72.140625 10.957031 72.171875 10.886719 72.210938 10.777344 L 74.660156 4.484375 L 74.671875 4.484375 L 74.671875 10.1875 C 74.671875 10.546875 74.648438 10.65625 73.878906 10.65625 L 73.640625 10.65625 L 73.640625 10.957031 C 74.011719 10.925781 74.691406 10.925781 75.078125 10.925781 C 75.460938 10.925781 76.128906 10.925781 76.5 10.957031 L 76.5 10.65625 L 76.261719 10.65625 C 75.488281 10.65625 75.46875 10.546875 75.46875 10.1875 L 75.46875 4.945312 C 75.46875 4.597656 75.488281 4.484375 76.261719 4.484375 L 76.5 4.484375 L 76.5 4.175781 L 74.820312 4.175781 C 74.558594 4.175781 74.558594 4.1875 74.488281 4.367188 L 72.308594 9.957031 Z M 70.148438 4.394531 "/>
<path style=" stroke:none;fill-rule:nonzero;fill:rgb(0%,0%,0%);fill-opacity:1;" d="M 81.351562 8.964844 L 81.351562 8.855469 L 81.328125 8.636719 L 81.308594 8.535156 L 81.289062 8.425781 L 81.269531 8.324219 L 81.238281 8.226562 L 81.210938 8.125 L 81.171875 8.027344 L 81.128906 7.9375 L 81.089844 7.847656 L 81.039062 7.757812 L 80.988281 7.664062 L 80.871094 7.507812 L 80.808594 7.4375 L 80.738281 7.355469 L 80.609375 7.226562 L 80.53125 7.164062 L 80.460938 7.105469 L 80.378906 7.054688 L 80.289062 7.007812 L 80.210938 6.964844 L 80.121094 6.925781 L 80.039062 6.886719 L 79.941406 6.855469 L 79.761719 6.816406 L 79.660156 6.796875 L 79.558594 6.796875 L 79.460938 6.785156 C 78.980469 6.785156 78.558594 6.945312 78.199219 7.296875 L 78.199219 5.355469 C 78.398438 5.414062 78.71875 5.484375 79.039062 5.484375 C 80.269531 5.484375 80.960938 4.585938 80.960938 4.457031 C 80.960938 4.394531 80.929688 4.347656 80.859375 4.347656 C 80.851562 4.347656 80.828125 4.347656 80.78125 4.375 C 80.589844 4.464844 80.101562 4.664062 79.429688 4.664062 C 79.03125 4.664062 78.578125 4.597656 78.109375 4.386719 C 78.03125 4.355469 78.011719 4.355469 77.988281 4.355469 C 77.890625 4.355469 77.890625 4.4375 77.890625 4.597656 L 77.890625 7.535156 C 77.890625 7.714844 77.890625 7.796875 78.03125 7.796875 C 78.101562 7.796875 78.121094 7.765625 78.160156 7.707031 C 78.269531 7.546875 78.640625 7.007812 79.441406 7.007812 C 79.960938 7.007812 80.210938 7.464844 80.289062 7.644531 C 80.449219 8.007812 80.46875 8.394531 80.46875 8.894531 C 80.46875 9.246094 80.46875 9.835938 80.230469 10.257812 C 79.988281 10.644531 79.621094 10.90625 79.160156 10.90625 C 78.441406 10.90625 77.871094 10.375 77.699219 9.785156 C 77.730469 9.796875 77.761719 9.804688 77.871094 9.804688 C 78.199219 9.804688 78.371094 9.554688 78.371094 9.324219 C 78.371094 9.085938 78.199219 8.835938 77.871094 8.835938 C 77.730469 8.835938 77.378906 8.90625 77.378906 9.367188 C 77.378906 10.214844 78.070312 11.175781 79.179688 11.175781 C 80.339844 11.175781 81.351562 10.226562 81.351562 8.964844 Z M 81.351562 8.964844 "/>
<path style=" stroke:none;fill-rule:nonzero;fill:rgb(0%,0%,0%);fill-opacity:1;" d="M 83.890625 4.066406 L 83.890625 4.054688 L 83.898438 4.046875 L 83.898438 4.027344 L 83.910156 4.015625 L 83.910156 4.007812 L 83.921875 3.996094 L 83.921875 3.964844 L 83.929688 3.964844 L 83.929688 3.9375 L 83.941406 3.9375 L 83.941406 3.886719 L 83.949219 3.886719 L 83.949219 3.847656 C 83.949219 3.625 83.75 3.457031 83.539062 3.457031 C 83.269531 3.457031 83.191406 3.675781 83.148438 3.785156 L 82.230469 6.796875 C 82.230469 6.804688 82.199219 6.90625 82.199219 6.90625 C 82.199219 6.996094 82.421875 7.054688 82.46875 7.054688 C 82.519531 7.054688 82.53125 7.046875 82.578125 6.945312 Z M 83.890625 4.066406 "/>
</g>
</svg>
