<?xml version="1.0" encoding="utf-8" standalone="no"?>
<!DOCTYPE svg PUBLIC "-//W3C//DTD SVG 1.1//EN"
  "http://www.w3.org/Graphics/SVG/1.1/DTD/svg11.dtd">
<!-- Created with matplotlib (http://matplotlib.org/) -->
<svg height="482pt" version="1.1" viewBox="0 0 503 482" width="503pt" xmlns="http://www.w3.org/2000/svg" xmlns:xlink="http://www.w3.org/1999/xlink">
 <defs>
  <style type="text/css">
*{stroke-linecap:butt;stroke-linejoin:round;stroke-miterlimit:100000;}
  </style>
 </defs>
 <g id="figure_1">
  <g id="patch_1">
   <path d="M 0 482.220625 
L 503.48125 482.220625 
L 503.48125 0 
L 0 0 
z
" style="fill:#ffffff;"/>
  </g>
  <g id="axes_1">
   <g id="patch_2">
    <path d="M 33.139375 466.606875 
L 493.939375 466.606875 
L 493.939375 5.806875 
L 33.139375 5.806875 
z
" style="fill:#ffffff;"/>
   </g>
   <g id="line2d_1">
    <path clip-path="url(#p5bea8551ff)" d="M 241.823567 353.018182 
L 241.881553 352.655856 
L 241.943615 352.269406 
L 242.007832 351.871106 
L 242.073427 351.465907 
L 242.140021 351.056232 
L 242.207403 350.643443 
L 242.275443 350.228367 
L 242.344058 349.81155 
L 242.413189 349.393369 
L 242.482795 348.974092 
L 242.552844 348.553917 
L 242.623315 348.132997 
L 242.694187 347.711457 
L 242.765449 347.289382 
L 242.837087 346.866851 
L 242.909092 346.443927 
L 242.981457 346.020661 
L 243.054175 345.597093 
L 243.12724 345.173259 
L 243.200648 344.749192 
L 243.274395 344.324921 
L 243.348474 343.900472 
L 243.422886 343.475857 
L 243.497626 343.051097 
L 243.572692 342.626208 
L 243.648081 342.201203 
L 243.72379 341.776097 
L 243.799818 341.350901 
L 243.876163 340.925621 
L 243.952823 340.500266 
L 244.029796 340.074847 
L 244.107081 339.649369 
L 244.184676 339.223839 
L 244.262579 338.798265 
L 244.340788 338.372652 
L 244.419302 337.947009 
L 244.49812 337.521335 
L 244.57724 337.095634 
L 244.65666 336.669914 
L 244.736381 336.244174 
L 244.816398 335.818422 
L 244.896712 335.392658 
L 244.977321 334.966887 
L 245.058224 334.541111 
L 245.139418 334.115334 
L 245.220902 333.689557 
L 245.302676 333.263781 
L 245.384738 332.838008 
L 245.467087 332.412241 
L 245.549719 331.986482 
L 245.81603 330.638782 
" style="fill:none;stroke:#440154;stroke-linecap:square;"/>
   </g>
   <g id="line2d_2">
    <path clip-path="url(#p5bea8551ff)" d="M 245.81603 330.638782 
L 248.027689 319.814432 
L 251.175434 305.585057 
L 254.9322 289.743343 
L 259.328863 272.185244 
L 265.143194 249.973084 
L 271.784561 225.50855 
L 278.78354 200.575151 
L 283.913943 183.05057 
L 287.78291 170.592566 
L 291.159689 160.609571 
L 293.830702 153.543435 
L 295.369756 149.870552 
L 297.101458 146.110349 
L 299.082719 142.289971 
L 301.35645 138.495244 
L 303.884413 134.908851 
L 306.660979 131.571208 
L 309.65479 128.486679 
L 312.824262 125.626957 
L 316.01688 123.037646 
L 322.229317 118.531951 
L 328.122698 114.652003 
L 336.382544 109.569258 
L 346.503663 103.642493 
L 362.424202 94.61397 
L 429.283845 56.978808 
L 457.728068 40.615713 
L 487.26371 23.367504 
L 504.48125 13.201329 
L 504.48125 13.201329 
" style="fill:none;stroke:#30678d;stroke-linecap:square;"/>
   </g>
   <g id="line2d_3">
    <path clip-path="url(#p5bea8551ff)" d="M 285.293323 353.417101 
L 278.074462 346.088256 
L 271.242065 339.467613 
L 266.596155 335.157974 
L 260.713414 329.9356 
L 255.294257 325.356881 
L 247.67625 319.277817 
L 240.4395 313.854669 
L 233.450183 308.906003 
L 226.635406 304.326622 
L 219.95138 300.050596 
L 211.195759 294.747555 
L 202.582082 289.838635 
L 194.086253 285.278596 
L 185.695148 281.035565 
L 177.40276 277.085304 
L 169.207756 273.407822 
L 161.111707 269.985391 
L 151.135643 266.040828 
L 141.32636 262.437757 
L 131.690515 259.145905 
L 122.233108 256.135965 
L 111.066049 252.840845 
L 111.066049 252.840845 
" style="fill:none;stroke:#35b778;stroke-linecap:square;"/>
   </g>
   <g id="line2d_4">
    <path clip-path="url(#p5bea8551ff)" d="M 111.066049 252.840845 
L 109.297356 252.342889 
L 107.478483 251.837475 
L 105.666858 251.340583 
L 103.86247 250.852022 
L 102.0653 250.371606 
L 100.275329 249.899154 
L 98.492536 249.434485 
L 96.716895 248.977427 
L 94.948378 248.527806 
L 93.186955 248.085456 
L 91.432595 247.650213 
L 89.685264 247.221916 
L 87.944927 246.800408 
L 86.211548 246.385535 
L 84.485089 245.977147 
L 82.76551 245.575097 
L 81.052772 245.179242 
L 79.346832 244.789443 
L 77.647649 244.405563 
L 75.955176 244.027467 
L 74.269369 243.655026 
L 72.590182 243.288113 
L 70.917569 242.926604 
L 69.251481 242.570379 
L 67.591872 242.21932 
L 65.938693 241.873312 
L 64.291895 241.532243 
L 62.651427 241.196003 
L 61.01724 240.864486 
L 59.389285 240.537589 
L 57.76751 240.215211 
L 56.151867 239.897253 
L 54.542304 239.583619 
L 52.938771 239.274217 
L 51.341217 238.968953 
L 49.749591 238.667741 
L 48.163844 238.370492 
L 46.583924 238.077122 
L 45.009783 237.787551 
L 43.441371 237.501696 
L 41.878638 237.219481 
L 40.321533 236.940828 
L 39.796874 236.84778 
" style="fill:none;stroke:#35b778;stroke-linecap:square;"/>
   </g>
   <g id="line2d_5">
    <path clip-path="url(#p5bea8551ff)" d="M 39.796874 236.84778 
L 25.049275 234.334851 
L 8.837573 231.795976 
L -1 230.355633 
L -1 230.355633 
" style="fill:none;stroke:#30678d;stroke-linecap:square;"/>
   </g>
   <g id="line2d_6">
    <path clip-path="url(#p5bea8551ff)" d="M 248.075952 319.58972 
L 232.905242 285.392174 
L 223.616292 264.838469 
L 215.817473 248.14926 
L 209.463363 235.03701 
L 202.955533 222.119863 
L 197.101176 210.976703 
L 191.070507 199.991647 
L 185.744939 190.715454 
L 180.265216 181.585581 
L 174.627741 172.62269 
L 168.835829 163.849643 
L 162.900425 155.289007 
L 156.839685 146.960192 
L 150.677054 138.877061 
L 144.438696 131.046731 
L 137.099826 122.231174 
L 129.73177 113.751434 
L 122.366775 105.591684 
L 113.98597 96.632462 
L 104.637151 86.981758 
L 94.379768 76.737726 
L 83.280188 65.985556 
L 71.407267 54.796532 
L 57.873232 42.360673 
L 42.81823 28.847198 
L 26.38395 14.401383 
L 17.471578 6.676983 
L 17.471578 6.676983 
" style="fill:none;stroke:#440154;stroke-linecap:square;"/>
   </g>
   <g id="line2d_7">
    <defs>
     <path d="M -4 4 
L 4 -4 
M -4 -4 
L 4 4 
" id="m2cc5aa98d4" style="stroke:#000000;stroke-width:2.0;"/>
    </defs>
    <g clip-path="url(#p5bea8551ff)">
     <use style="stroke:#000000;stroke-width:2.0;" x="241.755187316" xlink:href="#m2cc5aa98d4" y="353.448466737"/>
    </g>
   </g>
   <g id="line2d_8">
    <g clip-path="url(#p5bea8551ff)">
     <use style="stroke:#000000;stroke-width:2.0;" x="285.323562684" xlink:href="#m2cc5aa98d4" y="118.965283263"/>
    </g>
   </g>
   <g id="line2d_9">
    <g clip-path="url(#p5bea8551ff)">
     <use style="stroke:#000000;stroke-width:2.0;" x="285.323562684" xlink:href="#m2cc5aa98d4" y="353.448466737"/>
    </g>
   </g>
   <g id="line2d_10">
    <g clip-path="url(#p5bea8551ff)">
     <use style="stroke:#000000;stroke-width:2.0;" x="241.755187316" xlink:href="#m2cc5aa98d4" y="118.965283263"/>
    </g>
   </g>
   <g id="line2d_11">
    <path clip-path="url(#p5bea8551ff)" d="M 241.755187 353.448467 
L -1 213.293694 
" style="fill:none;stroke:#000000;stroke-dasharray:1.000000,3.000000;stroke-dashoffset:0.0;"/>
   </g>
   <g id="line2d_12">
    <path clip-path="url(#p5bea8551ff)" d="M 285.323563 118.965283 
L 77.537597 -1 
" style="fill:none;stroke:#000000;stroke-dasharray:1.000000,3.000000;stroke-dashoffset:0.0;"/>
   </g>
   <g id="line2d_13">
    <path clip-path="url(#p5bea8551ff)" d="M 285.323563 353.448467 
L -1 188.139481 
" style="fill:none;stroke:#000000;stroke-dasharray:1.000000,3.000000;stroke-dashoffset:0.0;"/>
   </g>
   <g id="line2d_14">
    <path clip-path="url(#p5bea8551ff)" d="M 241.755187 118.965283 
L 33.969222 -1 
" style="fill:none;stroke:#000000;stroke-dasharray:1.000000,3.000000;stroke-dashoffset:0.0;"/>
   </g>
   <g id="patch_3">
    <path d="M 33.139375 5.806875 
L 493.939375 5.806875 
" style="fill:none;stroke:#000000;stroke-linecap:square;stroke-linejoin:miter;"/>
   </g>
   <g id="patch_4">
    <path d="M 493.939375 466.606875 
L 493.939375 5.806875 
" style="fill:none;stroke:#000000;stroke-linecap:square;stroke-linejoin:miter;"/>
   </g>
   <g id="patch_5">
    <path d="M 33.139375 466.606875 
L 493.939375 466.606875 
" style="fill:none;stroke:#000000;stroke-linecap:square;stroke-linejoin:miter;"/>
   </g>
   <g id="patch_6">
    <path d="M 33.139375 466.606875 
L 33.139375 5.806875 
" style="fill:none;stroke:#000000;stroke-linecap:square;stroke-linejoin:miter;"/>
   </g>
   <g id="matplotlib.axis_1">
    <g id="xtick_1">
     <g id="line2d_15">
      <defs>
       <path d="M 0 0 
L 0 -4 
" id="m41ae16d7ad" style="stroke:#000000;stroke-width:0.5;"/>
      </defs>
      <g>
       <use style="stroke:#000000;stroke-width:0.5;" x="33.139375" xlink:href="#m41ae16d7ad" y="466.606875"/>
      </g>
     </g>
     <g id="line2d_16">
      <defs>
       <path d="M 0 0 
L 0 4 
" id="m5147f1cc7c" style="stroke:#000000;stroke-width:0.5;"/>
      </defs>
      <g>
       <use style="stroke:#000000;stroke-width:0.5;" x="33.139375" xlink:href="#m5147f1cc7c" y="5.806875"/>
      </g>
     </g>
     <g id="text_1">
      <!-- −2.0 -->
      <defs>
       <path d="M 10.59375 35.5 
L 73.1875 35.5 
L 73.1875 27.203125 
L 10.59375 27.203125 
z
" id="BitstreamVeraSans-Roman-2212"/>
       <path d="M 19.1875 8.296875 
L 53.609375 8.296875 
L 53.609375 0 
L 7.328125 0 
L 7.328125 8.296875 
Q 12.9375 14.109375 22.625 23.890625 
Q 32.328125 33.6875 34.8125 36.53125 
Q 39.546875 41.84375 41.421875 45.53125 
Q 43.3125 49.21875 43.3125 52.78125 
Q 43.3125 58.59375 39.234375 62.25 
Q 35.15625 65.921875 28.609375 65.921875 
Q 23.96875 65.921875 18.8125 64.3125 
Q 13.671875 62.703125 7.8125 59.421875 
L 7.8125 69.390625 
Q 13.765625 71.78125 18.9375 73 
Q 24.125 74.21875 28.421875 74.21875 
Q 39.75 74.21875 46.484375 68.546875 
Q 53.21875 62.890625 53.21875 53.421875 
Q 53.21875 48.921875 51.53125 44.890625 
Q 49.859375 40.875 45.40625 35.40625 
Q 44.1875 33.984375 37.640625 27.21875 
Q 31.109375 20.453125 19.1875 8.296875 
" id="BitstreamVeraSans-Roman-32"/>
       <path d="M 31.78125 66.40625 
Q 24.171875 66.40625 20.328125 58.90625 
Q 16.5 51.421875 16.5 36.375 
Q 16.5 21.390625 20.328125 13.890625 
Q 24.171875 6.390625 31.78125 6.390625 
Q 39.453125 6.390625 43.28125 13.890625 
Q 47.125 21.390625 47.125 36.375 
Q 47.125 51.421875 43.28125 58.90625 
Q 39.453125 66.40625 31.78125 66.40625 
M 31.78125 74.21875 
Q 44.046875 74.21875 50.515625 64.515625 
Q 56.984375 54.828125 56.984375 36.375 
Q 56.984375 17.96875 50.515625 8.265625 
Q 44.046875 -1.421875 31.78125 -1.421875 
Q 19.53125 -1.421875 13.0625 8.265625 
Q 6.59375 17.96875 6.59375 36.375 
Q 6.59375 54.828125 13.0625 64.515625 
Q 19.53125 74.21875 31.78125 74.21875 
" id="BitstreamVeraSans-Roman-30"/>
       <path d="M 10.6875 12.40625 
L 21 12.40625 
L 21 0 
L 10.6875 0 
z
" id="BitstreamVeraSans-Roman-2e"/>
      </defs>
      <g transform="translate(18.5696875 479.725)scale(0.12 -0.12)">
       <use xlink:href="#BitstreamVeraSans-Roman-2212"/>
       <use x="83.7890625" xlink:href="#BitstreamVeraSans-Roman-32"/>
       <use x="147.412109375" xlink:href="#BitstreamVeraSans-Roman-2e"/>
       <use x="179.19921875" xlink:href="#BitstreamVeraSans-Roman-30"/>
      </g>
     </g>
    </g>
    <g id="xtick_2">
     <g id="line2d_17">
      <g>
       <use style="stroke:#000000;stroke-width:0.5;" x="90.739375" xlink:href="#m41ae16d7ad" y="466.606875"/>
      </g>
     </g>
     <g id="line2d_18">
      <g>
       <use style="stroke:#000000;stroke-width:0.5;" x="90.739375" xlink:href="#m5147f1cc7c" y="5.806875"/>
      </g>
     </g>
     <g id="text_2">
      <!-- −1.5 -->
      <defs>
       <path d="M 12.40625 8.296875 
L 28.515625 8.296875 
L 28.515625 63.921875 
L 10.984375 60.40625 
L 10.984375 69.390625 
L 28.421875 72.90625 
L 38.28125 72.90625 
L 38.28125 8.296875 
L 54.390625 8.296875 
L 54.390625 0 
L 12.40625 0 
z
" id="BitstreamVeraSans-Roman-31"/>
       <path d="M 10.796875 72.90625 
L 49.515625 72.90625 
L 49.515625 64.59375 
L 19.828125 64.59375 
L 19.828125 46.734375 
Q 21.96875 47.46875 24.109375 47.828125 
Q 26.265625 48.1875 28.421875 48.1875 
Q 40.625 48.1875 47.75 41.5 
Q 54.890625 34.8125 54.890625 23.390625 
Q 54.890625 11.625 47.5625 5.09375 
Q 40.234375 -1.421875 26.90625 -1.421875 
Q 22.3125 -1.421875 17.546875 -0.640625 
Q 12.796875 0.140625 7.71875 1.703125 
L 7.71875 11.625 
Q 12.109375 9.234375 16.796875 8.0625 
Q 21.484375 6.890625 26.703125 6.890625 
Q 35.15625 6.890625 40.078125 11.328125 
Q 45.015625 15.765625 45.015625 23.390625 
Q 45.015625 31 40.078125 35.4375 
Q 35.15625 39.890625 26.703125 39.890625 
Q 22.75 39.890625 18.8125 39.015625 
Q 14.890625 38.140625 10.796875 36.28125 
z
" id="BitstreamVeraSans-Roman-35"/>
      </defs>
      <g transform="translate(76.1696875 479.725)scale(0.12 -0.12)">
       <use xlink:href="#BitstreamVeraSans-Roman-2212"/>
       <use x="83.7890625" xlink:href="#BitstreamVeraSans-Roman-31"/>
       <use x="147.412109375" xlink:href="#BitstreamVeraSans-Roman-2e"/>
       <use x="179.19921875" xlink:href="#BitstreamVeraSans-Roman-35"/>
      </g>
     </g>
    </g>
    <g id="xtick_3">
     <g id="line2d_19">
      <g>
       <use style="stroke:#000000;stroke-width:0.5;" x="148.339375" xlink:href="#m41ae16d7ad" y="466.606875"/>
      </g>
     </g>
     <g id="line2d_20">
      <g>
       <use style="stroke:#000000;stroke-width:0.5;" x="148.339375" xlink:href="#m5147f1cc7c" y="5.806875"/>
      </g>
     </g>
     <g id="text_3">
      <!-- −1.0 -->
      <g transform="translate(133.7696875 479.725)scale(0.12 -0.12)">
       <use xlink:href="#BitstreamVeraSans-Roman-2212"/>
       <use x="83.7890625" xlink:href="#BitstreamVeraSans-Roman-31"/>
       <use x="147.412109375" xlink:href="#BitstreamVeraSans-Roman-2e"/>
       <use x="179.19921875" xlink:href="#BitstreamVeraSans-Roman-30"/>
      </g>
     </g>
    </g>
    <g id="xtick_4">
     <g id="line2d_21">
      <g>
       <use style="stroke:#000000;stroke-width:0.5;" x="205.939375" xlink:href="#m41ae16d7ad" y="466.606875"/>
      </g>
     </g>
     <g id="line2d_22">
      <g>
       <use style="stroke:#000000;stroke-width:0.5;" x="205.939375" xlink:href="#m5147f1cc7c" y="5.806875"/>
      </g>
     </g>
     <g id="text_4">
      <!-- −0.5 -->
      <g transform="translate(191.3696875 479.725)scale(0.12 -0.12)">
       <use xlink:href="#BitstreamVeraSans-Roman-2212"/>
       <use x="83.7890625" xlink:href="#BitstreamVeraSans-Roman-30"/>
       <use x="147.412109375" xlink:href="#BitstreamVeraSans-Roman-2e"/>
       <use x="179.19921875" xlink:href="#BitstreamVeraSans-Roman-35"/>
      </g>
     </g>
    </g>
    <g id="xtick_5">
     <g id="line2d_23">
      <g>
       <use style="stroke:#000000;stroke-width:0.5;" x="263.539375" xlink:href="#m41ae16d7ad" y="466.606875"/>
      </g>
     </g>
     <g id="line2d_24">
      <g>
       <use style="stroke:#000000;stroke-width:0.5;" x="263.539375" xlink:href="#m5147f1cc7c" y="5.806875"/>
      </g>
     </g>
     <g id="text_5">
      <!-- 0.0 -->
      <g transform="translate(253.9975 479.725)scale(0.12 -0.12)">
       <use xlink:href="#BitstreamVeraSans-Roman-30"/>
       <use x="63.623046875" xlink:href="#BitstreamVeraSans-Roman-2e"/>
       <use x="95.41015625" xlink:href="#BitstreamVeraSans-Roman-30"/>
      </g>
     </g>
    </g>
    <g id="xtick_6">
     <g id="line2d_25">
      <g>
       <use style="stroke:#000000;stroke-width:0.5;" x="321.139375" xlink:href="#m41ae16d7ad" y="466.606875"/>
      </g>
     </g>
     <g id="line2d_26">
      <g>
       <use style="stroke:#000000;stroke-width:0.5;" x="321.139375" xlink:href="#m5147f1cc7c" y="5.806875"/>
      </g>
     </g>
     <g id="text_6">
      <!-- 0.5 -->
      <g transform="translate(311.5975 479.725)scale(0.12 -0.12)">
       <use xlink:href="#BitstreamVeraSans-Roman-30"/>
       <use x="63.623046875" xlink:href="#BitstreamVeraSans-Roman-2e"/>
       <use x="95.41015625" xlink:href="#BitstreamVeraSans-Roman-35"/>
      </g>
     </g>
    </g>
    <g id="xtick_7">
     <g id="line2d_27">
      <g>
       <use style="stroke:#000000;stroke-width:0.5;" x="378.739375" xlink:href="#m41ae16d7ad" y="466.606875"/>
      </g>
     </g>
     <g id="line2d_28">
      <g>
       <use style="stroke:#000000;stroke-width:0.5;" x="378.739375" xlink:href="#m5147f1cc7c" y="5.806875"/>
      </g>
     </g>
     <g id="text_7">
      <!-- 1.0 -->
      <g transform="translate(369.1975 479.725)scale(0.12 -0.12)">
       <use xlink:href="#BitstreamVeraSans-Roman-31"/>
       <use x="63.623046875" xlink:href="#BitstreamVeraSans-Roman-2e"/>
       <use x="95.41015625" xlink:href="#BitstreamVeraSans-Roman-30"/>
      </g>
     </g>
    </g>
    <g id="xtick_8">
     <g id="line2d_29">
      <g>
       <use style="stroke:#000000;stroke-width:0.5;" x="436.339375" xlink:href="#m41ae16d7ad" y="466.606875"/>
      </g>
     </g>
     <g id="line2d_30">
      <g>
       <use style="stroke:#000000;stroke-width:0.5;" x="436.339375" xlink:href="#m5147f1cc7c" y="5.806875"/>
      </g>
     </g>
     <g id="text_8">
      <!-- 1.5 -->
      <g transform="translate(426.7975 479.725)scale(0.12 -0.12)">
       <use xlink:href="#BitstreamVeraSans-Roman-31"/>
       <use x="63.623046875" xlink:href="#BitstreamVeraSans-Roman-2e"/>
       <use x="95.41015625" xlink:href="#BitstreamVeraSans-Roman-35"/>
      </g>
     </g>
    </g>
    <g id="xtick_9">
     <g id="line2d_31">
      <g>
       <use style="stroke:#000000;stroke-width:0.5;" x="493.939375" xlink:href="#m41ae16d7ad" y="466.606875"/>
      </g>
     </g>
     <g id="line2d_32">
      <g>
       <use style="stroke:#000000;stroke-width:0.5;" x="493.939375" xlink:href="#m5147f1cc7c" y="5.806875"/>
      </g>
     </g>
     <g id="text_9">
      <!-- 2.0 -->
      <g transform="translate(484.3975 479.725)scale(0.12 -0.12)">
       <use xlink:href="#BitstreamVeraSans-Roman-32"/>
       <use x="63.623046875" xlink:href="#BitstreamVeraSans-Roman-2e"/>
       <use x="95.41015625" xlink:href="#BitstreamVeraSans-Roman-30"/>
      </g>
     </g>
    </g>
   </g>
   <g id="matplotlib.axis_2">
    <g id="ytick_1">
     <g id="line2d_33">
      <defs>
       <path d="M 0 0 
L 4 0 
" id="mbb9348dbe3" style="stroke:#000000;stroke-width:0.5;"/>
      </defs>
      <g>
       <use style="stroke:#000000;stroke-width:0.5;" x="33.139375" xlink:href="#mbb9348dbe3" y="466.606875"/>
      </g>
     </g>
     <g id="line2d_34">
      <defs>
       <path d="M 0 0 
L -4 0 
" id="mad2702fda1" style="stroke:#000000;stroke-width:0.5;"/>
      </defs>
      <g>
       <use style="stroke:#000000;stroke-width:0.5;" x="493.939375" xlink:href="#mad2702fda1" y="466.606875"/>
      </g>
     </g>
     <g id="text_10">
      <!-- −2.0 -->
      <g transform="translate(3.5527136788e-15 469.918125)scale(0.12 -0.12)">
       <use xlink:href="#BitstreamVeraSans-Roman-2212"/>
       <use x="83.7890625" xlink:href="#BitstreamVeraSans-Roman-32"/>
       <use x="147.412109375" xlink:href="#BitstreamVeraSans-Roman-2e"/>
       <use x="179.19921875" xlink:href="#BitstreamVeraSans-Roman-30"/>
      </g>
     </g>
    </g>
    <g id="ytick_2">
     <g id="line2d_35">
      <g>
       <use style="stroke:#000000;stroke-width:0.5;" x="33.139375" xlink:href="#mbb9348dbe3" y="409.006875"/>
      </g>
     </g>
     <g id="line2d_36">
      <g>
       <use style="stroke:#000000;stroke-width:0.5;" x="493.939375" xlink:href="#mad2702fda1" y="409.006875"/>
      </g>
     </g>
     <g id="text_11">
      <!-- −1.5 -->
      <g transform="translate(3.5527136788e-15 412.318125)scale(0.12 -0.12)">
       <use xlink:href="#BitstreamVeraSans-Roman-2212"/>
       <use x="83.7890625" xlink:href="#BitstreamVeraSans-Roman-31"/>
       <use x="147.412109375" xlink:href="#BitstreamVeraSans-Roman-2e"/>
       <use x="179.19921875" xlink:href="#BitstreamVeraSans-Roman-35"/>
      </g>
     </g>
    </g>
    <g id="ytick_3">
     <g id="line2d_37">
      <g>
       <use style="stroke:#000000;stroke-width:0.5;" x="33.139375" xlink:href="#mbb9348dbe3" y="351.406875"/>
      </g>
     </g>
     <g id="line2d_38">
      <g>
       <use style="stroke:#000000;stroke-width:0.5;" x="493.939375" xlink:href="#mad2702fda1" y="351.406875"/>
      </g>
     </g>
     <g id="text_12">
      <!-- −1.0 -->
      <g transform="translate(3.5527136788e-15 354.718125)scale(0.12 -0.12)">
       <use xlink:href="#BitstreamVeraSans-Roman-2212"/>
       <use x="83.7890625" xlink:href="#BitstreamVeraSans-Roman-31"/>
       <use x="147.412109375" xlink:href="#BitstreamVeraSans-Roman-2e"/>
       <use x="179.19921875" xlink:href="#BitstreamVeraSans-Roman-30"/>
      </g>
     </g>
    </g>
    <g id="ytick_4">
     <g id="line2d_39">
      <g>
       <use style="stroke:#000000;stroke-width:0.5;" x="33.139375" xlink:href="#mbb9348dbe3" y="293.806875"/>
      </g>
     </g>
     <g id="line2d_40">
      <g>
       <use style="stroke:#000000;stroke-width:0.5;" x="493.939375" xlink:href="#mad2702fda1" y="293.806875"/>
      </g>
     </g>
     <g id="text_13">
      <!-- −0.5 -->
      <g transform="translate(3.5527136788e-15 297.118125)scale(0.12 -0.12)">
       <use xlink:href="#BitstreamVeraSans-Roman-2212"/>
       <use x="83.7890625" xlink:href="#BitstreamVeraSans-Roman-30"/>
       <use x="147.412109375" xlink:href="#BitstreamVeraSans-Roman-2e"/>
       <use x="179.19921875" xlink:href="#BitstreamVeraSans-Roman-35"/>
      </g>
     </g>
    </g>
    <g id="ytick_5">
     <g id="line2d_41">
      <g>
       <use style="stroke:#000000;stroke-width:0.5;" x="33.139375" xlink:href="#mbb9348dbe3" y="236.206875"/>
      </g>
     </g>
     <g id="line2d_42">
      <g>
       <use style="stroke:#000000;stroke-width:0.5;" x="493.939375" xlink:href="#mad2702fda1" y="236.206875"/>
      </g>
     </g>
     <g id="text_14">
      <!-- 0.0 -->
      <g transform="translate(10.055625 239.518125)scale(0.12 -0.12)">
       <use xlink:href="#BitstreamVeraSans-Roman-30"/>
       <use x="63.623046875" xlink:href="#BitstreamVeraSans-Roman-2e"/>
       <use x="95.41015625" xlink:href="#BitstreamVeraSans-Roman-30"/>
      </g>
     </g>
    </g>
    <g id="ytick_6">
     <g id="line2d_43">
      <g>
       <use style="stroke:#000000;stroke-width:0.5;" x="33.139375" xlink:href="#mbb9348dbe3" y="178.606875"/>
      </g>
     </g>
     <g id="line2d_44">
      <g>
       <use style="stroke:#000000;stroke-width:0.5;" x="493.939375" xlink:href="#mad2702fda1" y="178.606875"/>
      </g>
     </g>
     <g id="text_15">
      <!-- 0.5 -->
      <g transform="translate(10.055625 181.918125)scale(0.12 -0.12)">
       <use xlink:href="#BitstreamVeraSans-Roman-30"/>
       <use x="63.623046875" xlink:href="#BitstreamVeraSans-Roman-2e"/>
       <use x="95.41015625" xlink:href="#BitstreamVeraSans-Roman-35"/>
      </g>
     </g>
    </g>
    <g id="ytick_7">
     <g id="line2d_45">
      <g>
       <use style="stroke:#000000;stroke-width:0.5;" x="33.139375" xlink:href="#mbb9348dbe3" y="121.006875"/>
      </g>
     </g>
     <g id="line2d_46">
      <g>
       <use style="stroke:#000000;stroke-width:0.5;" x="493.939375" xlink:href="#mad2702fda1" y="121.006875"/>
      </g>
     </g>
     <g id="text_16">
      <!-- 1.0 -->
      <g transform="translate(10.055625 124.318125)scale(0.12 -0.12)">
       <use xlink:href="#BitstreamVeraSans-Roman-31"/>
       <use x="63.623046875" xlink:href="#BitstreamVeraSans-Roman-2e"/>
       <use x="95.41015625" xlink:href="#BitstreamVeraSans-Roman-30"/>
      </g>
     </g>
    </g>
    <g id="ytick_8">
     <g id="line2d_47">
      <g>
       <use style="stroke:#000000;stroke-width:0.5;" x="33.139375" xlink:href="#mbb9348dbe3" y="63.406875"/>
      </g>
     </g>
     <g id="line2d_48">
      <g>
       <use style="stroke:#000000;stroke-width:0.5;" x="493.939375" xlink:href="#mad2702fda1" y="63.406875"/>
      </g>
     </g>
     <g id="text_17">
      <!-- 1.5 -->
      <g transform="translate(10.055625 66.718125)scale(0.12 -0.12)">
       <use xlink:href="#BitstreamVeraSans-Roman-31"/>
       <use x="63.623046875" xlink:href="#BitstreamVeraSans-Roman-2e"/>
       <use x="95.41015625" xlink:href="#BitstreamVeraSans-Roman-35"/>
      </g>
     </g>
    </g>
    <g id="ytick_9">
     <g id="line2d_49">
      <g>
       <use style="stroke:#000000;stroke-width:0.5;" x="33.139375" xlink:href="#mbb9348dbe3" y="5.806875"/>
      </g>
     </g>
     <g id="line2d_50">
      <g>
       <use style="stroke:#000000;stroke-width:0.5;" x="493.939375" xlink:href="#mad2702fda1" y="5.806875"/>
      </g>
     </g>
     <g id="text_18">
      <!-- 2.0 -->
      <g transform="translate(10.055625 9.118125)scale(0.12 -0.12)">
       <use xlink:href="#BitstreamVeraSans-Roman-32"/>
       <use x="63.623046875" xlink:href="#BitstreamVeraSans-Roman-2e"/>
       <use x="95.41015625" xlink:href="#BitstreamVeraSans-Roman-30"/>
      </g>
     </g>
    </g>
   </g>
  </g>
 </g>
 <defs>
  <clipPath id="p5bea8551ff">
   <rect height="460.8" width="460.8" x="33.139375" y="5.806875"/>
  </clipPath>
 </defs>
</svg>
