<?xml version="1.0" encoding="UTF-8" standalone="no"?>
<!-- Created with Inkscape (http://www.inkscape.org/) -->

<svg
   xmlns:dc="http://purl.org/dc/elements/1.1/"
   xmlns:cc="http://creativecommons.org/ns#"
   xmlns:rdf="http://www.w3.org/1999/02/22-rdf-syntax-ns#"
   xmlns:svg="http://www.w3.org/2000/svg"
   xmlns="http://www.w3.org/2000/svg"
   xmlns:sodipodi="http://sodipodi.sourceforge.net/DTD/sodipodi-0.dtd"
   xmlns:inkscape="http://www.inkscape.org/namespaces/inkscape"
   id="svg2"
   version="1.1"
   inkscape:version="0.48.4 r9939"
   xml:space="preserve"
   width="1341.8519"
   height="867.14142"
   viewBox="0 0 1341.8519 867.14141"
   sodipodi:docname="soliton-tree.pdf"><sodipodi:namedview
     pagecolor="#ffffff"
     bordercolor="#666666"
     borderopacity="1"
     objecttolerance="10"
     gridtolerance="10"
     guidetolerance="10"
     inkscape:pageopacity="0"
     inkscape:pageshadow="2"
     inkscape:window-width="1375"
     inkscape:window-height="876"
     id="namedview4"
     showgrid="false"
     inkscape:zoom="0.41403484"
     inkscape:cx="738.76915"
     inkscape:cy="598.07491"
     inkscape:window-x="65"
     inkscape:window-y="24"
     inkscape:window-maximized="1"
     inkscape:current-layer="g10"
     fit-margin-top="0"
     fit-margin-left="0"
     fit-margin-right="0"
     fit-margin-bottom="0" /><metadata
     id="metadata8"><rdf:RDF><cc:Work
         rdf:about=""><dc:format>image/svg+xml</dc:format><dc:type
           rdf:resource="http://purl.org/dc/dcmitype/StillImage" /><dc:title></dc:title></cc:Work></rdf:RDF></metadata><defs
     id="defs6"><marker
       inkscape:isstock="true"
       style="overflow:visible"
       id="Arrow1Mend"
       refX="0"
       refY="0"
       orient="auto"
       inkscape:stockid="Arrow1Mend"><path
         transform="matrix(-0.4,0,0,-0.4,-4,0)"
         style="fill-rule:evenodd;stroke:#000000;stroke-width:1pt"
         d="M 0,0 5,-5 -12.5,0 5,5 0,0 z"
         id="path4893"
         inkscape:connector-curvature="0" /></marker><marker
       inkscape:stockid="Arrow1Mend"
       orient="auto"
       refY="0"
       refX="0"
       id="marker5926"
       style="overflow:visible"
       inkscape:isstock="true"><path
         id="path5928"
         d="M 0,0 5,-5 -12.5,0 5,5 0,0 z"
         style="fill:#000000;fill-opacity:1;fill-rule:evenodd;stroke:#000000;stroke-width:1pt;stroke-opacity:1"
         transform="matrix(-0.4,0,0,-0.4,-4,0)"
         inkscape:connector-curvature="0" /></marker><clipPath
       id="clipPath20"
       clipPathUnits="userSpaceOnUse"><path
         inkscape:connector-curvature="0"
         id="path22"
         d="M 0,0 433,0 433,484 0,484 0,0 z" /></clipPath><clipPath
       id="clipPath32"
       clipPathUnits="userSpaceOnUse"><path
         inkscape:connector-curvature="0"
         id="path34"
         d="M 0,0 433,0 433,484 0,484 0,0 z" /></clipPath><clipPath
       id="clipPath44"
       clipPathUnits="userSpaceOnUse"><path
         inkscape:connector-curvature="0"
         id="path46"
         d="M 0,0 433,0 433,484 0,484 0,0 z" /></clipPath><clipPath
       id="clipPath56"
       clipPathUnits="userSpaceOnUse"><path
         inkscape:connector-curvature="0"
         id="path58"
         d="M 0,0 433,0 433,484 0,484 0,0 z" /></clipPath><clipPath
       id="clipPath68"
       clipPathUnits="userSpaceOnUse"><path
         inkscape:connector-curvature="0"
         id="path70"
         d="M 0,0 433,0 433,484 0,484 0,0 z" /></clipPath><clipPath
       id="clipPath80"
       clipPathUnits="userSpaceOnUse"><path
         inkscape:connector-curvature="0"
         id="path82"
         d="M 0,0 433,0 433,484 0,484 0,0 z" /></clipPath><clipPath
       id="clipPath92"
       clipPathUnits="userSpaceOnUse"><path
         inkscape:connector-curvature="0"
         id="path94"
         d="M 0,0 433,0 433,484 0,484 0,0 z" /></clipPath><clipPath
       id="clipPath104"
       clipPathUnits="userSpaceOnUse"><path
         inkscape:connector-curvature="0"
         id="path106"
         d="M 0,0 433,0 433,484 0,484 0,0 z" /></clipPath><clipPath
       id="clipPath114"
       clipPathUnits="userSpaceOnUse"><path
         inkscape:connector-curvature="0"
         id="path116"
         d="M 0,484 433,484 433,0.219 0,0.219 0,484 z" /></clipPath><clipPath
       id="clipPath124"
       clipPathUnits="userSpaceOnUse"><path
         inkscape:connector-curvature="0"
         id="path126"
         d="M 0,0 433,0 433,484 0,484 0,0 z" /></clipPath><clipPath
       id="clipPath136"
       clipPathUnits="userSpaceOnUse"><path
         inkscape:connector-curvature="0"
         id="path138"
         d="M 0,0 433,0 433,484 0,484 0,0 z" /></clipPath><clipPath
       id="clipPath148"
       clipPathUnits="userSpaceOnUse"><path
         inkscape:connector-curvature="0"
         id="path150"
         d="M 0,0 433,0 433,484 0,484 0,0 z" /></clipPath><clipPath
       id="clipPath160"
       clipPathUnits="userSpaceOnUse"><path
         inkscape:connector-curvature="0"
         id="path162"
         d="M 0,0 433,0 433,484 0,484 0,0 z" /></clipPath><clipPath
       id="clipPath172"
       clipPathUnits="userSpaceOnUse"><path
         inkscape:connector-curvature="0"
         id="path174"
         d="M 0,0 433,0 433,484 0,484 0,0 z" /></clipPath><clipPath
       id="clipPath184"
       clipPathUnits="userSpaceOnUse"><path
         inkscape:connector-curvature="0"
         id="path186"
         d="M 0,0 433,0 433,484 0,484 0,0 z" /></clipPath><clipPath
       id="clipPath196"
       clipPathUnits="userSpaceOnUse"><path
         inkscape:connector-curvature="0"
         id="path198"
         d="M 0,0 433,0 433,484 0,484 0,0 z" /></clipPath><clipPath
       id="clipPath208"
       clipPathUnits="userSpaceOnUse"><path
         inkscape:connector-curvature="0"
         id="path210"
         d="M 0,0 433,0 433,484 0,484 0,0 z" /></clipPath><clipPath
       id="clipPath220"
       clipPathUnits="userSpaceOnUse"><path
         inkscape:connector-curvature="0"
         id="path222"
         d="M 0,0 433,0 433,484 0,484 0,0 z" /></clipPath><marker
       inkscape:stockid="Arrow1Mend"
       orient="auto"
       refY="0"
       refX="0"
       id="marker5926-3"
       style="overflow:visible"
       inkscape:isstock="true"><path
         id="path5928-2"
         d="M 0,0 5,-5 -12.5,0 5,5 0,0 z"
         style="fill:#000000;fill-opacity:1;fill-rule:evenodd;stroke:#000000;stroke-width:1pt;stroke-opacity:1"
         transform="matrix(-0.4,0,0,-0.4,-4,0)"
         inkscape:connector-curvature="0" /></marker><marker
       inkscape:stockid="Arrow1Mend"
       orient="auto"
       refY="0"
       refX="0"
       id="marker5926-7"
       style="overflow:visible"
       inkscape:isstock="true"><path
         id="path5928-20"
         d="M 0,0 5,-5 -12.5,0 5,5 0,0 z"
         style="fill:#000000;fill-opacity:1;fill-rule:evenodd;stroke:#000000;stroke-width:1pt;stroke-opacity:1"
         transform="matrix(-0.4,0,0,-0.4,-4,0)"
         inkscape:connector-curvature="0" /></marker><marker
       inkscape:stockid="Arrow1Mend"
       orient="auto"
       refY="0"
       refX="0"
       id="marker5926-1"
       style="overflow:visible"
       inkscape:isstock="true"><path
         id="path5928-5"
         d="M 0,0 5,-5 -12.5,0 5,5 0,0 z"
         style="fill:#000000;fill-opacity:1;fill-rule:evenodd;stroke:#000000;stroke-width:1pt;stroke-opacity:1"
         transform="matrix(-0.4,0,0,-0.4,-4,0)"
         inkscape:connector-curvature="0" /></marker><marker
       inkscape:stockid="Arrow1Mend"
       orient="auto"
       refY="0"
       refX="0"
       id="marker5926-0"
       style="overflow:visible"
       inkscape:isstock="true"><path
         id="path5928-9"
         d="M 0,0 5,-5 -12.5,0 5,5 0,0 z"
         style="fill:#000000;fill-opacity:1;fill-rule:evenodd;stroke:#000000;stroke-width:1pt;stroke-opacity:1"
         transform="matrix(-0.4,0,0,-0.4,-4,0)"
         inkscape:connector-curvature="0" /></marker><marker
       inkscape:stockid="Arrow1Mend"
       orient="auto"
       refY="0"
       refX="0"
       id="marker5926-4"
       style="overflow:visible"
       inkscape:isstock="true"><path
         id="path5928-1"
         d="M 0,0 5,-5 -12.5,0 5,5 0,0 z"
         style="fill:#000000;fill-opacity:1;fill-rule:evenodd;stroke:#000000;stroke-width:1pt;stroke-opacity:1"
         transform="matrix(-0.4,0,0,-0.4,-4,0)"
         inkscape:connector-curvature="0" /></marker><marker
       inkscape:stockid="Arrow1Mend"
       orient="auto"
       refY="0"
       refX="0"
       id="marker5926-8"
       style="overflow:visible"
       inkscape:isstock="true"><path
         id="path5928-8"
         d="M 0,0 5,-5 -12.5,0 5,5 0,0 z"
         style="fill:#000000;fill-opacity:1;fill-rule:evenodd;stroke:#000000;stroke-width:1pt;stroke-opacity:1"
         transform="matrix(-0.4,0,0,-0.4,-4,0)"
         inkscape:connector-curvature="0" /></marker></defs><g
     transform="matrix(1.25,0,0,-1.25,212.77735,751.70817)"
     inkscape:label="standard-trivialization-3"
     inkscape:groupmode="layer"
     id="g10"><path
       style="fill:none;stroke:#000000;stroke-width:3.68000007;stroke-linecap:butt;stroke-linejoin:miter;stroke-miterlimit:4;stroke-opacity:1;stroke-dasharray:none;marker-mid:url(#marker5926);marker-end:none"
       d="m 170.90179,-80.468299 c 29.21071,23.200241 70.93109,57.089614 114.07052,93.416196 36.31277,30.578033 73.63101,62.882949 105.34001,91.993103"
       id="path6875-3"
       inkscape:connector-curvature="0"
       sodipodi:nodetypes="csc" /><path
       sodipodi:nodetypes="csc"
       inkscape:connector-curvature="0"
       id="path9599"
       d="M -110.31414,60.919928 C -53.028079,80.663172 4.5892955,104.44251 62.381503,128.73905 124.80717,154.98354 187.43681,181.83149 250.07323,204.84791"
       style="fill:none;stroke:#000000;stroke-width:3.68000007;stroke-linecap:butt;stroke-linejoin:miter;stroke-miterlimit:4;stroke-opacity:1;stroke-dasharray:none;marker-mid:url(#marker5926);marker-end:none" /><path
       style="fill:none;stroke:#000000;stroke-width:3.68000007;stroke-linecap:butt;stroke-linejoin:miter;stroke-miterlimit:4;stroke-opacity:1;stroke-dasharray:none;marker-mid:url(#marker5926);marker-end:none"
       d="m -154.22058,288.90798 c 59.944358,4.98077 107.527357,8.5304 155.4574543,13.04623 51.9587527,4.89542 104.3254057,10.92629 173.2898557,21.14675"
       id="path6875"
       inkscape:connector-curvature="0"
       sodipodi:nodetypes="csc" /><path
       inkscape:connector-curvature="0"
       id="path4532-3"
       style="fill:#ff8000;fill-opacity:1;fill-rule:nonzero;stroke:none"
       d="m 159.51012,-72.69864 16.196,-14.360757 -4.10688,-4.63173 -16.196,14.360757 4.10688,4.63173 z" /><path
       inkscape:connector-curvature="0"
       id="path4534-7"
       style="fill:#ff8000;fill-opacity:1;fill-rule:nonzero;stroke:none"
       d="m 170.41949,-72.04839 4.62648,-4.10224 -14.36075,-16.195977 -4.62648,4.10225 14.36075,16.195967 z" /><path
       style="fill:none;stroke:#000000;stroke-width:3.68000007;stroke-linecap:butt;stroke-linejoin:miter;stroke-miterlimit:4;stroke-opacity:1;stroke-dasharray:none;marker-mid:url(#marker5926);marker-end:none"
       d="M -133.9586,591.03321 C -69.32876,571.15388 -3.7209728,551.88292 60.131131,533.40843 128.71487,513.56493 195.27307,494.64031 256.41826,476.86767"
       id="path6875-2"
       inkscape:connector-curvature="0"
       sodipodi:nodetypes="csc" /><path
       inkscape:connector-curvature="0"
       id="path4532"
       style="fill:#ff8000;fill-opacity:1;fill-rule:nonzero;stroke:none"
       d="m -140.36077,601.36654 13.51671,-16.90681 -4.835,-3.86551 -13.51671,16.90681 4.835,3.86551 z" /><path
       inkscape:connector-curvature="0"
       id="path4534"
       style="fill:#ff8000;fill-opacity:1;fill-rule:nonzero;stroke:none"
       d="m -129.49982,600.15131 3.86113,-4.82953 -16.90679,-13.5167 -3.86112,4.82954 16.90678,13.51669 z" /><path
       inkscape:connector-curvature="0"
       id="path4532-9"
       style="fill:#ff8000;fill-opacity:1;fill-rule:nonzero;stroke:none"
       d="m -118.57083,69.200746 17.90137,-12.168922 -3.48006,-5.11943 -17.90136,12.168919 3.48005,5.119433 z" /><path
       inkscape:connector-curvature="0"
       id="path4534-4"
       style="fill:#ff8000;fill-opacity:1;fill-rule:nonzero;stroke:none"
       d="m -107.83451,71.24242 5.11363,-3.47613 -12.16892,-17.901352 -5.11361,3.476137 12.1689,17.901345 z" /><path
       inkscape:connector-curvature="0"
       id="path4532-7"
       style="fill:#ff8000;fill-opacity:1;fill-rule:nonzero;stroke:none"
       d="m -163.60133,300.04296 12.84133,-17.42533 -4.98328,-3.67237 -12.84133,17.42533 4.98328,3.67237 z" /><path
       inkscape:connector-curvature="0"
       id="path4534-1"
       style="fill:#ff8000;fill-opacity:1;fill-rule:nonzero;stroke:none"
       d="m -152.79657,298.40152 3.6682,-4.97765 -17.42531,-12.84131 -3.6682,4.97766 17.42531,12.8413 z" /><path
       sodipodi:nodetypes="csc"
       inkscape:connector-curvature="0"
       id="path9625"
       d="m 356.06771,429.68957 c 60.10687,-2.30174 107.77003,-4.52991 155.89454,-5.8409 52.1695,-1.42118 104.88117,-1.76454 174.57535,0.0447"
       style="fill:none;stroke:#000000;stroke-width:3.68000007;stroke-linecap:butt;stroke-linejoin:miter;stroke-miterlimit:4;stroke-opacity:1;stroke-dasharray:none;marker-mid:url(#marker5926);marker-end:none" /><path
       style="fill:none;stroke:#000000;stroke-width:3.68000007;stroke-linecap:butt;stroke-linejoin:miter;stroke-miterlimit:4;stroke-opacity:1;stroke-dasharray:none;marker-mid:url(#marker5926);marker-end:none"
       d="m 601.59958,242.63332 c 20.04301,38.12732 33.47314,62.82091 46.93236,91.04946 11.61597,24.36259 23.25363,51.35821 39.1827,91.89506"
       id="path9627"
       inkscape:connector-curvature="0"
       sodipodi:nodetypes="csc" /><path
       style="fill:none;stroke:#000000;stroke-width:3.68000007;stroke-linecap:butt;stroke-linejoin:miter;stroke-miterlimit:4;stroke-opacity:1;stroke-dasharray:none;marker-mid:url(#marker5926);marker-end:none"
       d="m 401.26588,230.76152 c 43.06499,0.90582 71.17379,1.09949 102.39034,2.978 26.94139,1.62122 56.1976,4.49739 99.38094,10.16937"
       id="path9627-1"
       inkscape:connector-curvature="0"
       sodipodi:nodetypes="csc" /><path
       style="fill:none;stroke:#000000;stroke-width:3.68000007;stroke-linecap:butt;stroke-linejoin:miter;stroke-miterlimit:4;stroke-opacity:1;stroke-dasharray:none;marker-mid:url(#marker5926);marker-end:none"
       d="m 473.72199,90.873647 c 29.18438,31.681003 48.51991,52.083963 68.79373,75.895173 17.49728,20.55022 35.69348,43.63911 61.52307,78.70767"
       id="path9627-1-4"
       inkscape:connector-curvature="0"
       sodipodi:nodetypes="csc" /><path
       style="fill:none;stroke:#000000;stroke-width:3.68000007;stroke-linecap:butt;stroke-linejoin:miter;stroke-miterlimit:4;stroke-opacity:1;stroke-dasharray:none;marker-mid:url(#marker5926);marker-end:none"
       d="m 685.62432,424.50662 c 41.17799,12.64072 68.16377,20.50898 97.67854,30.84724 25.47268,8.92241 52.8291,19.6846 92.81835,36.94238"
       id="path9627-11"
       inkscape:connector-curvature="0"
       sodipodi:nodetypes="csc" /><path
       transform="matrix(0.53384339,-0.12158316,-0.12158316,-0.53384339,-45.332914,227.17081)"
       d="m 562.75456,-387.64853 c 0,6.66955 -5.40673,12.07628 -12.07628,12.07628 -6.66954,0 -12.07627,-5.40673 -12.07627,-12.07628 0,-6.66954 5.40673,-12.07628 12.07627,-12.07628 6.66955,0 12.07628,5.40674 12.07628,12.07628 z"
       sodipodi:ry="12.076279"
       sodipodi:rx="12.076279"
       sodipodi:cy="-387.64853"
       sodipodi:cx="550.67828"
       id="path9727"
       style="fill:#000000;fill-opacity:1;stroke:#006186;stroke-width:1.29999995;stroke-miterlimit:4;stroke-opacity:1;stroke-dasharray:none;stroke-dashoffset:0"
       sodipodi:type="arc" /><path
       transform="matrix(0.53384339,-0.12158316,-0.12158316,-0.53384339,-25.496333,153.48435)"
       d="m 562.75456,-387.64853 c 0,6.66955 -5.40673,12.07628 -12.07628,12.07628 -6.66954,0 -12.07627,-5.40673 -12.07627,-12.07628 0,-6.66954 5.40673,-12.07628 12.07627,-12.07628 6.66955,0 12.07628,5.40674 12.07628,12.07628 z"
       sodipodi:ry="12.076279"
       sodipodi:rx="12.076279"
       sodipodi:cy="-387.64853"
       sodipodi:cx="550.67828"
       id="path9727-1"
       style="fill:#000000;fill-opacity:1;stroke:#006186;stroke-width:1.29999995;stroke-miterlimit:4;stroke-opacity:1;stroke-dasharray:none;stroke-dashoffset:0"
       sodipodi:type="arc" /><path
       transform="matrix(0.53384339,-0.12158316,-0.12158316,-0.53384339,-3.0810261,79.210594)"
       d="m 562.75456,-387.64853 c 0,6.66955 -5.40673,12.07628 -12.07628,12.07628 -6.66954,0 -12.07627,-5.40673 -12.07627,-12.07628 0,-6.66954 5.40673,-12.07628 12.07627,-12.07628 6.66955,0 12.07628,5.40674 12.07628,12.07628 z"
       sodipodi:ry="12.076279"
       sodipodi:rx="12.076279"
       sodipodi:cy="-387.64853"
       sodipodi:cx="550.67828"
       id="path9727-0"
       style="fill:#000000;fill-opacity:1;stroke:#006186;stroke-width:1.29999995;stroke-miterlimit:4;stroke-opacity:1;stroke-dasharray:none;stroke-dashoffset:0"
       sodipodi:type="arc" /><path
       transform="matrix(0.80000001,0,0,-0.80000001,437.99554,183.48064)"
       d="m 562.75456,-387.64853 c 0,6.66955 -5.40673,12.07628 -12.07628,12.07628 -6.66954,0 -12.07627,-5.40673 -12.07627,-12.07628 0,-6.66954 5.40673,-12.07628 12.07627,-12.07628 6.66955,0 12.07628,5.40674 12.07628,12.07628 z"
       sodipodi:ry="12.076279"
       sodipodi:rx="12.076279"
       sodipodi:cy="-387.64853"
       sodipodi:cx="550.67828"
       id="path9727-2"
       style="fill:#009200;fill-opacity:1;stroke:none"
       sodipodi:type="arc" /><g
       id="g9850"
       transform="matrix(1.8603216,0,0,-1.8603216,284.37843,877.48925)"
       style="fill:#009200;fill-opacity:1;stroke:none"><g
         word-spacing="normal"
         letter-spacing="normal"
         font-size-adjust="none"
         font-stretch="normal"
         font-weight="normal"
         font-variant="normal"
         font-style="normal"
         stroke-miterlimit="10.433"
         xml:space="preserve"
         transform="matrix(1.09508,0,0,-1.09508,-191.63901,631.28746)"
         id="content"
         style="font-style:normal;font-variant:normal;font-weight:normal;font-stretch:normal;letter-spacing:normal;word-spacing:normal;text-anchor:start;fill:#009200;fill-opacity:1;stroke:none"><path
           id="path9853"
           d="m 462.14,410.34 0.25,0.27 0.24,0.25 0.24,0.25 0.23,0.24 0.22,0.23 0.22,0.22 0.21,0.22 0.2,0.21 0.2,0.2 0.2,0.19 0.19,0.19 0.19,0.19 0.18,0.17 0.19,0.18 0.35,0.33 0.34,0.32 0.33,0.3 0.33,0.29 0.32,0.29 0.65,0.56 0.33,0.29 0.33,0.28 c 0,0.05 3.08,2.69 4.88,4.49 4.73,4.64 5.83,7.03 5.83,7.21 0,0.5 -0.46,0.5 -0.55,0.5 -0.35,0 -0.5,-0.09 -0.75,-0.54 -1.49,-2.39 -2.53,-3.19 -3.74,-3.19 -1.2,0 -1.79,0.75 -2.54,1.59 -0.94,1.16 -1.78,2.14 -3.44,2.14 -3.73,0 -6.02,-4.62 -6.02,-5.67 0,-0.25 0.14,-0.54 0.6,-0.54 0.45,0 0.54,0.25 0.64,0.54 0.95,2.3 3.84,2.35 4.23,2.35 1.05,0 2,-0.36 3.14,-0.75 2,-0.75 2.55,-0.75 3.85,-0.75 -1.8,-2.14 -5.99,-5.74 -6.92,-6.53 l -4.49,-4.18 c -3.39,-3.34 -5.14,-6.18 -5.14,-6.53 0,-0.5 0.5,-0.5 0.59,-0.5 0.41,0 0.5,0.1 0.8,0.64 1.16,1.75 2.64,3.1 4.24,3.1 1.15,0 1.65,-0.46 2.89,-1.89 0.86,-1.05 1.75,-1.85 3.18,-1.85 4.94,0 7.83,6.33 7.83,7.67 0,0.25 -0.2,0.5 -0.59,0.5 -0.46,0 -0.55,-0.29 -0.71,-0.65 -1.14,-3.24 -4.32,-4.17 -5.98,-4.17 -0.98,0 -1.89,0.29 -2.94,0.64 -1.68,0.64 -2.43,0.84 -3.48,0.84 -0.1,0 -0.89,0 -1.35,-0.14 z"
           inkscape:connector-curvature="0"
           style="fill:#009200;fill-opacity:1;stroke:none" /></g></g><g
       id="g10034"
       transform="matrix(1.1806206,0,0,-1.1806206,274.81038,592.95786)"><g
         id="g10036"
         transform="matrix(1.2387735,0,0,-1.2387735,-216.78535,1006.3889)"
         xml:space="preserve"
         stroke-miterlimit="10.433"
         font-style="normal"
         font-variant="normal"
         font-weight="normal"
         font-stretch="normal"
         font-size-adjust="none"
         letter-spacing="normal"
         word-spacing="normal"
         style="font-style:normal;font-variant:normal;font-weight:normal;font-stretch:normal;letter-spacing:normal;word-spacing:normal;text-anchor:start;fill:none;stroke:#000000;stroke-linecap:butt;stroke-linejoin:miter;stroke-miterlimit:10.43299961;stroke-opacity:1;stroke-dasharray:none;stroke-dashoffset:0"><path
           d="M 479.74,437.14 H 488 c 6.58,0 9.07,3.78 9.07,4.43 0,0.25 -0.19,0.35 -0.44,0.35 -0.56,0 -1.84,-0.5 -3.09,-1.39 -0.41,-0.3 -0.5,-0.3 -1.46,-0.3 h -21.76 c -6.18,0 -13.11,-5.33 -13.11,-9.42 0,-0.3 0,-0.6 0.4,-0.6 1.19,0 4.33,1.65 4.44,2.85 0.05,0.84 0.14,1.78 1.14,3.08 0.5,0.61 0.89,1 3.1,1 h 9.9 c -0.84,-0.55 -1.05,-1.3 -1.14,-1.8 l -5.69,-22.56 c -0.59,-2.44 -1.64,-5.58 -3.07,-8.82 -0.3,-0.6 -0.3,-0.7 -0.3,-0.81 0,-0.29 0.19,-0.34 0.44,-0.34 1,0 3.43,1.34 4.18,2.39 0.3,0.5 2.5,5.58 3.55,9.72 z"
           id="path10038"
           inkscape:connector-curvature="0"
           style="fill:#000000;stroke-width:0" /><path
           d="m 497.34,412.07 -0.07,0.11 -0.07,0.11 -0.07,0.1 -0.08,0.1 -0.08,0.1 -0.09,0.1 -0.08,0.09 -0.09,0.1 -0.09,0.09 -0.1,0.08 -0.1,0.09 -0.1,0.08 -0.1,0.08 -0.1,0.08 -0.11,0.07 -0.11,0.08 -0.12,0.06 -0.11,0.07 -0.12,0.06 -0.12,0.05 -0.13,0.06 -0.12,0.05 -0.13,0.04 -0.14,0.04 -0.13,0.04 -0.14,0.03 -0.14,0.03 -0.15,0.02 -0.14,0.02 -0.15,0.01 -0.15,0.01 -0.16,0 v -0.97 c 2.44,0 3.11,-2.64 3.11,-3.03 0,-0.14 -0.08,-0.39 -0.11,-0.48 l -1.64,-6.52 c -0.23,-0.98 -1,-1.67 -1.77,-2.34 -0.31,-0.27 -1.72,-1.39 -3.22,-1.39 -1.28,0 -2.53,0.9 -2.53,3.37 0,1.86 1,5.69 1.82,7.08 1.59,2.8 3.37,3.31 4.34,3.31 v 0.97 c -4.45,0 -8.98,-4.91 -8.98,-9.92 0,-3.38 2.26,-5.78 5.26,-5.78 1.88,0 3.55,1.08 4.94,2.44 0.67,-2.1 2.69,-2.44 3.59,-2.44 1.25,0 2.13,0.76 2.75,1.84 0.77,1.36 1.22,3.35 1.22,3.49 0,0.45 -0.45,0.45 -0.55,0.45 -0.5,0 -0.53,-0.14 -0.76,-1.08 -0.42,-1.67 -1.1,-3.73 -2.55,-3.73 -0.9,0 -1.15,0.76 -1.15,1.7 0,0.59 0.28,1.86 0.53,2.77 0.23,0.93 0.59,2.35 0.76,3.12 l 0.69,2.66 c 0.22,0.9 0.62,2.54 0.62,2.72 0,0.76 -0.62,1.1 -1.17,1.1 -0.59,0 -1.4,-0.42 -1.61,-1.39 z"
           id="path10040"
           inkscape:connector-curvature="0"
           style="fill:#000000;stroke-width:0" /></g></g><g
       id="g10210"
       transform="matrix(1.1806206,0,0,-1.1806206,371.17989,995.77763)"><g
         word-spacing="normal"
         letter-spacing="normal"
         font-size-adjust="none"
         font-stretch="normal"
         font-weight="normal"
         font-variant="normal"
         font-style="normal"
         stroke-miterlimit="10.433"
         xml:space="preserve"
         transform="matrix(1.2387735,0,0,-1.2387735,-216.78535,1006.3889)"
         id="g10212"
         style="font-style:normal;font-variant:normal;font-weight:normal;font-stretch:normal;letter-spacing:normal;word-spacing:normal;text-anchor:start;fill:none;stroke:#000000;stroke-linecap:butt;stroke-linejoin:miter;stroke-miterlimit:10.43299961;stroke-opacity:1;stroke-dasharray:none;stroke-dashoffset:0"><path
           id="path10214"
           d="m 474.1,425.03 -0.09,0.17 -0.09,0.17 -0.09,0.16 -0.09,0.16 -0.1,0.16 -0.1,0.16 -0.11,0.15 -0.11,0.14 -0.11,0.15 -0.12,0.13 -0.12,0.14 -0.12,0.13 -0.13,0.12 -0.13,0.12 -0.14,0.11 -0.14,0.11 -0.14,0.11 -0.15,0.09 -0.15,0.1 -0.15,0.08 -0.16,0.08 -0.17,0.08 -0.17,0.06 -0.17,0.07 -0.17,0.05 -0.18,0.05 -0.19,0.04 -0.19,0.03 -0.19,0.03 -0.2,0.02 -0.2,0.01 -0.21,0 0.05,-1.09 c 3.23,0 3.93,-4.08 3.93,-4.37 0,-0.32 -0.09,-0.61 -0.14,-0.86 l -2.5,-9.77 c -0.25,-0.89 -0.25,-0.98 -1,-1.84 -2.18,-2.74 -4.23,-3.53 -5.62,-3.53 -2.49,0 -3.19,2.73 -3.19,4.68 0,2.49 1.59,8.61 2.74,10.91 1.54,2.94 3.79,4.78 5.78,4.78 l -0.05,1.09 c -5.83,0 -12,-7.31 -12,-14.59 0,-4.69 2.73,-7.97 6.62,-7.97 0.99,0 3.49,0.21 6.47,3.74 0.41,-2.1 2.14,-3.74 4.53,-3.74 1.75,0 2.9,1.14 3.69,2.74 0.85,1.79 1.5,4.84 1.5,4.93 0,0.5 -0.45,0.5 -0.59,0.5 -0.5,0 -0.55,-0.2 -0.7,-0.9 -0.85,-3.24 -1.75,-6.17 -3.79,-6.17 -1.34,0 -1.5,1.29 -1.5,2.29 0,1.1 0.1,1.49 0.64,3.69 0.57,2.09 0.66,2.59 1.11,4.48 l 1.79,6.97 c 0.35,1.39 0.35,1.5 0.35,1.69 0,0.86 -0.6,1.36 -1.45,1.36 -1.19,0 -1.94,-1.11 -2.09,-2.2 z"
           inkscape:connector-curvature="0"
           style="fill:#000000;stroke-width:0" /><polyline
           id="polyline10216"
           points="456,398 482.4,398 482.4,400.04 456,400.04 "
           style="fill:#000000;fill-rule:nonzero;stroke-width:0" /><path
           id="path10218"
           d="m 493.59,415.88 0,0.04 0,0.04 0,0.04 0,0.04 0,0.04 0,0.04 0,0.04 0,0.03 0,0.03 0,0.04 -0.01,0.03 0,0.03 0,0.03 0,0.03 -0.01,0.02 0,0.03 -0.01,0.03 0,0.02 -0.01,0.02 0,0.03 -0.01,0.04 -0.02,0.04 -0.01,0.03 -0.02,0.03 -0.03,0.03 -0.02,0.02 -0.03,0.03 -0.03,0.02 -0.03,0.01 -0.04,0.02 -0.04,0.01 -0.04,0.01 -0.03,0.01 -0.02,0 -0.03,0.01 -0.02,0 -0.03,0 -0.03,0.01 -0.03,0 -0.03,0 -0.03,0 -0.04,0 -0.03,0 -0.04,0.01 -0.03,0 -0.04,0 -0.04,0 -0.04,0 -0.04,0 -0.04,0 -0.05,0 -0.04,0 c -2.24,-2.2 -5.39,-2.24 -6.83,-2.24 v -1.24 c 0.84,0 3.14,0 5.05,0.96 v -17.76 c 0,-1.16 0,-1.61 -3.49,-1.61 h -1.31 v -1.25 c 0.62,0.03 4.91,0.14 6.2,0.14 1.08,0 5.47,-0.11 6.24,-0.14 v 1.25 h -1.33 c -3.49,0 -3.49,0.45 -3.49,1.61 z"
           inkscape:connector-curvature="0"
           style="fill:#000000;stroke-width:0" /></g></g><g
       id="g10398"
       transform="matrix(1.1806206,0,0,-1.1806206,119.82753,1069.4739)"><g
         id="g10400"
         transform="matrix(1.2387735,0,0,-1.2387735,-216.78535,1006.3889)"
         xml:space="preserve"
         stroke-miterlimit="10.433"
         font-style="normal"
         font-variant="normal"
         font-weight="normal"
         font-stretch="normal"
         font-size-adjust="none"
         letter-spacing="normal"
         word-spacing="normal"
         style="font-style:normal;font-variant:normal;font-weight:normal;font-stretch:normal;letter-spacing:normal;word-spacing:normal;text-anchor:start;fill:none;stroke:#000000;stroke-linecap:butt;stroke-linejoin:miter;stroke-miterlimit:10.43299961;stroke-opacity:1;stroke-dasharray:none;stroke-dashoffset:0"><path
           d="m 474.1,425.03 -0.09,0.17 -0.09,0.17 -0.09,0.16 -0.09,0.16 -0.1,0.16 -0.1,0.16 -0.11,0.15 -0.11,0.14 -0.11,0.15 -0.12,0.13 -0.12,0.14 -0.12,0.13 -0.13,0.12 -0.13,0.12 -0.14,0.11 -0.14,0.11 -0.14,0.11 -0.15,0.09 -0.15,0.1 -0.15,0.08 -0.16,0.08 -0.17,0.08 -0.17,0.06 -0.17,0.07 -0.17,0.05 -0.18,0.05 -0.19,0.04 -0.19,0.03 -0.19,0.03 -0.2,0.02 -0.2,0.01 -0.21,0 0.05,-1.09 c 3.23,0 3.93,-4.08 3.93,-4.37 0,-0.32 -0.09,-0.61 -0.14,-0.86 l -2.5,-9.77 c -0.25,-0.89 -0.25,-0.98 -1,-1.84 -2.18,-2.74 -4.23,-3.53 -5.62,-3.53 -2.49,0 -3.19,2.73 -3.19,4.68 0,2.49 1.59,8.61 2.74,10.91 1.54,2.94 3.79,4.78 5.78,4.78 l -0.05,1.09 c -5.83,0 -12,-7.31 -12,-14.59 0,-4.69 2.73,-7.97 6.62,-7.97 0.99,0 3.49,0.21 6.47,3.74 0.41,-2.1 2.14,-3.74 4.53,-3.74 1.75,0 2.9,1.14 3.69,2.74 0.85,1.79 1.5,4.84 1.5,4.93 0,0.5 -0.45,0.5 -0.59,0.5 -0.5,0 -0.55,-0.2 -0.7,-0.9 -0.85,-3.24 -1.75,-6.17 -3.79,-6.17 -1.34,0 -1.5,1.29 -1.5,2.29 0,1.1 0.1,1.49 0.64,3.69 0.57,2.09 0.66,2.59 1.11,4.48 l 1.79,6.97 c 0.35,1.39 0.35,1.5 0.35,1.69 0,0.86 -0.6,1.36 -1.45,1.36 -1.19,0 -1.94,-1.11 -2.09,-2.2 z"
           id="path10402"
           inkscape:connector-curvature="0"
           style="fill:#000000;stroke-width:0" /><polyline
           points="456,398 482.4,398 482.4,400.04 456,400.04 "
           id="polyline10404"
           style="fill:#000000;fill-rule:nonzero;stroke-width:0" /><path
           d="m 499.52,400.06 h -1.19 c -0.1,-0.76 -0.45,-2.83 -0.91,-3.17 -0.26,-0.2 -2.95,-0.2 -3.44,-0.2 h -6.42 c 3.66,3.23 4.88,4.2 6.97,5.84 2.58,2.06 4.99,4.22 4.99,7.53 0,4.22 -3.69,6.8 -8.16,6.8 -4.31,0 -7.25,-3.03 -7.25,-6.24 0,-1.78 1.5,-1.95 1.86,-1.95 0.83,0 1.84,0.6 1.84,1.85 0,0.62 -0.25,1.84 -2.06,1.84 1.08,2.47 3.45,3.23 5.09,3.23 3.49,0 5.3,-2.7 5.3,-5.53 0,-3.03 -2.16,-5.44 -3.28,-6.68 l -8.39,-8.3 c -0.36,-0.31 -0.36,-0.39 -0.36,-1.36 h 14.36 z"
           id="path10406"
           inkscape:connector-curvature="0"
           style="fill:#000000;stroke-width:0" /></g></g><g
       id="g10596"
       transform="matrix(1.1806206,0,0,-1.1806206,-454.30595,1075.1807)"><g
         word-spacing="normal"
         letter-spacing="normal"
         font-size-adjust="none"
         font-stretch="normal"
         font-weight="normal"
         font-variant="normal"
         font-style="normal"
         stroke-miterlimit="10.433"
         xml:space="preserve"
         transform="matrix(1.2387735,0,0,-1.2387735,-216.78535,1006.3889)"
         id="g10598"
         style="font-style:normal;font-variant:normal;font-weight:normal;font-stretch:normal;letter-spacing:normal;word-spacing:normal;text-anchor:start;fill:none;stroke:#000000;stroke-linecap:butt;stroke-linejoin:miter;stroke-miterlimit:10.43299961;stroke-opacity:1;stroke-dasharray:none;stroke-dashoffset:0"><path
           id="path10600"
           d="m 474.1,425.03 -0.09,0.17 -0.09,0.17 -0.09,0.16 -0.09,0.16 -0.1,0.16 -0.1,0.16 -0.11,0.15 -0.11,0.14 -0.11,0.15 -0.12,0.13 -0.12,0.14 -0.12,0.13 -0.13,0.12 -0.13,0.12 -0.14,0.11 -0.14,0.11 -0.14,0.11 -0.15,0.09 -0.15,0.1 -0.15,0.08 -0.16,0.08 -0.17,0.08 -0.17,0.06 -0.17,0.07 -0.17,0.05 -0.18,0.05 -0.19,0.04 -0.19,0.03 -0.19,0.03 -0.2,0.02 -0.2,0.01 -0.21,0 0.05,-1.09 c 3.23,0 3.93,-4.08 3.93,-4.37 0,-0.32 -0.09,-0.61 -0.14,-0.86 l -2.5,-9.77 c -0.25,-0.89 -0.25,-0.98 -1,-1.84 -2.18,-2.74 -4.23,-3.53 -5.62,-3.53 -2.49,0 -3.19,2.73 -3.19,4.68 0,2.49 1.59,8.61 2.74,10.91 1.54,2.94 3.79,4.78 5.78,4.78 l -0.05,1.09 c -5.83,0 -12,-7.31 -12,-14.59 0,-4.69 2.73,-7.97 6.62,-7.97 0.99,0 3.49,0.21 6.47,3.74 0.41,-2.1 2.14,-3.74 4.53,-3.74 1.75,0 2.9,1.14 3.69,2.74 0.85,1.79 1.5,4.84 1.5,4.93 0,0.5 -0.45,0.5 -0.59,0.5 -0.5,0 -0.55,-0.2 -0.7,-0.9 -0.85,-3.24 -1.75,-6.17 -3.79,-6.17 -1.34,0 -1.5,1.29 -1.5,2.29 0,1.1 0.1,1.49 0.64,3.69 0.57,2.09 0.66,2.59 1.11,4.48 l 1.79,6.97 c 0.35,1.39 0.35,1.5 0.35,1.69 0,0.86 -0.6,1.36 -1.45,1.36 -1.19,0 -1.94,-1.11 -2.09,-2.2 z"
           inkscape:connector-curvature="0"
           style="fill:#000000;stroke-width:0" /><polyline
           id="polyline10602"
           points="456,398 482.4,398 482.4,400.04 456,400.04 "
           style="fill:#000000;fill-rule:nonzero;stroke-width:0" /><path
           id="path10604"
           d="m 492.83,416.86 0,0 0,0.01 0,0 0,0.01 0.01,0 0,0.01 0,0 0,0.01 0.01,0.01 0,0 0,0.02 0.01,0.02 0,0.02 0.01,0.02 0,0.02 0.01,0.02 0.01,0.02 0,0.02 0.01,0.03 0.01,0.04 0.01,0.05 0.01,0.02 0,0.03 0.01,0.02 0,0.02 0.01,0.02 0,0.02 0.01,0.01 0,0.02 0,0.01 0,0 0,0.01 0,0.01 0.01,0 0,0.01 0,0 0,0.01 0,0 0,0 0,0 0,0.01 c 0,0.18 -0.14,0.5 -0.56,0.5 -0.69,0 -3.58,-0.29 -4.46,-0.36 -0.28,-0.03 -0.76,-0.07 -0.76,-0.8 0,-0.48 0.48,-0.48 0.9,-0.48 1.68,0 1.68,-0.25 1.68,-0.54 0,-0.23 -0.08,-0.45 -0.15,-0.76 l -4.92,-19.72 c -0.17,-0.63 -0.17,-0.69 -0.17,-0.77 0,-0.51 0.42,-1.1 1.19,-1.1 0.94,0 1.39,0.68 1.61,1.45 0.06,0.14 1.56,6.28 1.7,6.76 2.47,-0.25 4.45,-1.04 4.45,-2.86 0,-0.17 0,-0.34 -0.06,-0.68 -0.14,-0.53 -0.14,-0.71 -0.14,-1.1 0,-2.47 2.02,-3.57 3.69,-3.57 3.39,0 4.44,5.29 4.44,5.32 0,0.46 -0.46,0.46 -0.57,0.46 -0.48,0 -0.53,-0.18 -0.7,-0.85 -0.41,-1.5 -1.36,-3.97 -3.06,-3.97 -0.94,0 -1.22,0.88 -1.22,1.82 0,0.59 0,0.65 0.2,1.56 0.05,0.11 0.19,0.7 0.19,1.09 0,3.1 -4.19,3.58 -5.66,3.69 1.02,0.62 2.3,1.78 2.89,2.3 1.79,1.67 3.54,3.31 5.47,3.31 0.43,0 0.88,-0.11 1.16,-0.45 -1.5,-0.25 -1.81,-1.43 -1.81,-1.96 0,-0.76 0.59,-1.28 1.39,-1.28 0.95,0 1.98,0.77 1.98,2.22 0,1.16 -0.83,2.44 -2.67,2.44 -1.98,0 -3.8,-1.42 -5.58,-3.06 -1.47,-1.4 -2.61,-2.47 -4.04,-3.07 z"
           inkscape:connector-curvature="0"
           style="fill:#000000;stroke-width:0" /></g></g></g></svg>